M48
; DRILL file {KiCad (6.0.1)} date Tue Mar 11 18:24:39 2025
; FORMAT={-:-/ absolute / metric / decimal}
; #@! TF.CreationDate,2025-03-11T18:24:39+01:00
; #@! TF.GenerationSoftware,Kicad,Pcbnew,(6.0.1)
; #@! TF.FileFunction,Plated,1,2,PTH
FMAT,2
METRIC
; #@! TA.AperFunction,Plated,PTH,ViaDrill
T1C0.400
; #@! TA.AperFunction,Plated,PTH,ViaDrill
T2C0.600
; #@! TA.AperFunction,Plated,PTH,ComponentDrill
T3C0.800
; #@! TA.AperFunction,Plated,PTH,ComponentDrill
T4C0.889
; #@! TA.AperFunction,Plated,PTH,ComponentDrill
T5C0.900
; #@! TA.AperFunction,Plated,PTH,ComponentDrill
T6C1.000
; #@! TA.AperFunction,Plated,PTH,ComponentDrill
T7C1.300
; #@! TA.AperFunction,Plated,PTH,ComponentDrill
T8C2.200
; #@! TA.AperFunction,Plated,PTH,ComponentDrill
T9C2.500
; #@! TA.AperFunction,Plated,PTH,ComponentDrill
T10C4.550
%
G90
G05
T1
X97.5Y-73.8
X106.1Y-87.7
X110.5Y-84.3
X112.6Y-91.0
X116.8Y-98.0
X116.9Y-78.1
X119.25Y-127.75
X119.25Y-130.5
X119.25Y-132.75
X120.5Y-85.25
X120.526Y-88.0
X120.65Y-90.8
X122.1Y-95.9
X122.75Y-81.25
X124.73Y-90.53
X125.0Y-98.95
X126.25Y-122.5
X126.5Y-89.4
X126.6Y-94.2
X127.385Y-76.391
X128.75Y-112.25
X129.0Y-83.5
X133.5Y-118.25
X133.5Y-132.75
X133.75Y-106.75
X134.1Y-113.2
X135.75Y-108.5
X136.9Y-114.0
X139.3Y-119.0
X139.8Y-106.3
X142.4Y-120.0
X142.8Y-90.4
X144.4Y-104.0
X144.8Y-84.7
X146.2Y-83.0
X149.5Y-110.1
X150.0Y-105.3
X151.9Y-133.4
X153.2Y-110.0
X156.3Y-109.6
X157.0Y-84.7
X160.9Y-86.7
X161.1Y-78.2
X161.8Y-73.0
X162.1Y-83.9
T2
X108.4Y-89.0
X150.5Y-155.0
T3
X113.3Y-79.8
X116.0Y-83.268
X116.0Y-85.768
X118.3Y-79.8
X131.5Y-82.0
X132.0Y-85.5
X132.0Y-88.0
X136.5Y-82.0
X149.6Y-107.3
X149.6Y-112.7
X152.0Y-107.3
X152.0Y-112.7
X154.4Y-107.3
X154.4Y-112.7
X158.8Y-111.7
X159.918Y-106.7
X162.418Y-106.7
X163.8Y-111.7
T4
X115.85Y-113.72
X115.85Y-116.26
X115.85Y-118.8
X115.85Y-121.34
X115.85Y-123.88
X115.85Y-126.42
X115.85Y-128.96
X115.85Y-131.5
X115.85Y-134.04
X115.85Y-136.58
X115.85Y-139.12
X115.85Y-141.66
X115.85Y-144.2
X115.85Y-146.74
X115.85Y-149.28
X144.15Y-113.72
X144.15Y-116.26
X144.15Y-118.8
X144.15Y-121.34
X144.15Y-123.88
X144.15Y-126.42
X144.15Y-128.96
X144.15Y-131.5
X144.15Y-134.04
X144.15Y-136.58
X144.15Y-139.12
X144.15Y-141.66
X144.15Y-144.2
X144.15Y-146.74
X144.15Y-149.28
T5
X105.92Y-64.0
X105.92Y-67.25
X105.92Y-72.5
X105.92Y-75.75
X116.08Y-64.0
X116.08Y-67.25
X116.08Y-72.5
X116.08Y-75.75
X143.84Y-64.0
X143.84Y-67.25
X143.84Y-72.5
X143.84Y-75.75
X154.0Y-64.0
X154.0Y-67.25
X154.0Y-72.5
X154.0Y-75.75
T6
X100.75Y-64.2
X100.75Y-66.74
X100.75Y-69.28
X100.75Y-71.82
X100.75Y-74.36
X100.75Y-76.9
X121.105Y-79.485
X122.375Y-74.405
X123.645Y-79.485
X124.915Y-74.405
X126.185Y-79.485
X127.455Y-74.405
X128.725Y-79.485
X129.995Y-74.405
X131.265Y-79.485
X132.535Y-74.405
X133.805Y-79.485
X135.075Y-74.405
X136.345Y-79.485
X137.615Y-74.405
X138.885Y-79.485
X159.25Y-64.2
X159.25Y-66.74
X159.25Y-69.28
X159.25Y-71.82
X159.25Y-74.36
X159.25Y-76.9
T7
X161.005Y-95.105
X161.005Y-100.105
T8
X95.5Y-62.5
X95.5Y-157.5
X164.5Y-62.5
X164.5Y-157.5
T9
X121.0Y-67.25
X139.0Y-67.25
T10
X151.5Y-91.5
X151.5Y-98.7
T0
M30
