G04 #@! TF.GenerationSoftware,KiCad,Pcbnew,(6.0.1)*
G04 #@! TF.CreationDate,2025-03-11T18:22:55+01:00*
G04 #@! TF.ProjectId,TwoWheelRobotPCB,54776f57-6865-4656-9c52-6f626f745043,rev?*
G04 #@! TF.SameCoordinates,Original*
G04 #@! TF.FileFunction,Soldermask,Bot*
G04 #@! TF.FilePolarity,Negative*
%FSLAX46Y46*%
G04 Gerber Fmt 4.6, Leading zero omitted, Abs format (unit mm)*
G04 Created by KiCad (PCBNEW (6.0.1)) date 2025-03-11 18:22:55*
%MOMM*%
%LPD*%
G01*
G04 APERTURE LIST*
G04 Aperture macros list*
%AMRoundRect*
0 Rectangle with rounded corners*
0 $1 Rounding radius*
0 $2 $3 $4 $5 $6 $7 $8 $9 X,Y pos of 4 corners*
0 Add a 4 corners polygon primitive as box body*
4,1,4,$2,$3,$4,$5,$6,$7,$8,$9,$2,$3,0*
0 Add four circle primitives for the rounded corners*
1,1,$1+$1,$2,$3*
1,1,$1+$1,$4,$5*
1,1,$1+$1,$6,$7*
1,1,$1+$1,$8,$9*
0 Add four rect primitives between the rounded corners*
20,1,$1+$1,$2,$3,$4,$5,0*
20,1,$1+$1,$4,$5,$6,$7,0*
20,1,$1+$1,$6,$7,$8,$9,0*
20,1,$1+$1,$8,$9,$2,$3,0*%
G04 Aperture macros list end*
%ADD10C,3.800000*%
%ADD11C,1.600000*%
%ADD12R,1.700000X1.700000*%
%ADD13O,1.700000X1.700000*%
%ADD14R,1.800000X1.800000*%
%ADD15O,1.800000X1.800000*%
%ADD16R,1.600000X1.600000*%
%ADD17C,6.204000*%
%ADD18RoundRect,0.102000X3.000000X-3.000000X3.000000X3.000000X-3.000000X3.000000X-3.000000X-3.000000X0*%
%ADD19RoundRect,0.102000X-0.876300X-0.876300X0.876300X-0.876300X0.876300X0.876300X-0.876300X0.876300X0*%
%ADD20C,1.956600*%
%ADD21C,5.000000*%
%ADD22R,2.500000X2.500000*%
%ADD23C,2.500000*%
G04 APERTURE END LIST*
D10*
X164500001Y-157500000D03*
D11*
X113300000Y-79800000D03*
X118300000Y-79800000D03*
D12*
X159250000Y-64200000D03*
D13*
X159250000Y-66740000D03*
X159250000Y-69280000D03*
X159250000Y-71820000D03*
X159250000Y-74360000D03*
X159250000Y-76900000D03*
D14*
X143840000Y-64000000D03*
D15*
X154000000Y-64000000D03*
D11*
X131500000Y-82000000D03*
X136500000Y-82000000D03*
X149600000Y-112700000D03*
X152000000Y-112700000D03*
X152000000Y-107300000D03*
X154400000Y-107300000D03*
X154400000Y-112700000D03*
D16*
X149600000Y-107300000D03*
D14*
X154000000Y-75750000D03*
D15*
X143840000Y-75750000D03*
D16*
X132000000Y-85500000D03*
D11*
X132000000Y-88000000D03*
D10*
X95500001Y-157499999D03*
X95500000Y-62500000D03*
D12*
X100750000Y-64200000D03*
D13*
X100750000Y-66740000D03*
X100750000Y-69280000D03*
X100750000Y-71820000D03*
X100750000Y-74360000D03*
X100750000Y-76900000D03*
D17*
X151500000Y-91500000D03*
D18*
X151500000Y-98700000D03*
D16*
X116000000Y-83267621D03*
D11*
X116000000Y-85767621D03*
D14*
X116080000Y-67250000D03*
D15*
X105920000Y-67250000D03*
D11*
X163800000Y-111700000D03*
X158800000Y-111700000D03*
D14*
X116080000Y-75750000D03*
D15*
X105920000Y-75750000D03*
D19*
X115850000Y-113720000D03*
D20*
X115850000Y-116260000D03*
X115850000Y-118800000D03*
X115850000Y-121340000D03*
X115850000Y-123880000D03*
X115850000Y-126420000D03*
X115850000Y-128960000D03*
X115850000Y-131500000D03*
X115850000Y-134040000D03*
X115850000Y-136580000D03*
X115850000Y-139120000D03*
X115850000Y-141660000D03*
X115850000Y-144200000D03*
X115850000Y-146740000D03*
X115850000Y-149280000D03*
X144150000Y-149280000D03*
X144150000Y-146740000D03*
X144150000Y-144200000D03*
X144150000Y-141660000D03*
X144150000Y-139120000D03*
X144150000Y-136580000D03*
X144150000Y-134040000D03*
X144150000Y-131500000D03*
X144150000Y-128960000D03*
X144150000Y-126420000D03*
X144150000Y-123880000D03*
X144150000Y-121340000D03*
X144150000Y-118800000D03*
X144150000Y-116260000D03*
X144150000Y-113720000D03*
D14*
X154000000Y-67250000D03*
D15*
X143840000Y-67250000D03*
D14*
X143840000Y-72500000D03*
D15*
X154000000Y-72500000D03*
D21*
X139000000Y-67250000D03*
X121000000Y-67250000D03*
D14*
X121105000Y-79485000D03*
D15*
X122375000Y-74405000D03*
X123645000Y-79485000D03*
X124915000Y-74405000D03*
X126185000Y-79485000D03*
X127455000Y-74405000D03*
X128725000Y-79485000D03*
X129995000Y-74405000D03*
X131265000Y-79485000D03*
X132535000Y-74405000D03*
X133805000Y-79485000D03*
X135075000Y-74405000D03*
X136345000Y-79485000D03*
X137615000Y-74405000D03*
X138885000Y-79485000D03*
D22*
X161004751Y-100104574D03*
D23*
X161004751Y-95104574D03*
D14*
X105920000Y-72500000D03*
D15*
X116080000Y-72500000D03*
D10*
X164500001Y-62500000D03*
D16*
X159917621Y-106700000D03*
D11*
X162417621Y-106700000D03*
D14*
X105920000Y-64000000D03*
D15*
X116080000Y-64000000D03*
M02*
