G04 #@! TF.GenerationSoftware,KiCad,Pcbnew,(6.0.1)*
G04 #@! TF.CreationDate,2025-03-11T18:22:55+01:00*
G04 #@! TF.ProjectId,TwoWheelRobotPCB,54776f57-6865-4656-9c52-6f626f745043,rev?*
G04 #@! TF.SameCoordinates,Original*
G04 #@! TF.FileFunction,Legend,Top*
G04 #@! TF.FilePolarity,Positive*
%FSLAX46Y46*%
G04 Gerber Fmt 4.6, Leading zero omitted, Abs format (unit mm)*
G04 Created by KiCad (PCBNEW (6.0.1)) date 2025-03-11 18:22:55*
%MOMM*%
%LPD*%
G01*
G04 APERTURE LIST*
G04 Aperture macros list*
%AMRoundRect*
0 Rectangle with rounded corners*
0 $1 Rounding radius*
0 $2 $3 $4 $5 $6 $7 $8 $9 X,Y pos of 4 corners*
0 Add a 4 corners polygon primitive as box body*
4,1,4,$2,$3,$4,$5,$6,$7,$8,$9,$2,$3,0*
0 Add four circle primitives for the rounded corners*
1,1,$1+$1,$2,$3*
1,1,$1+$1,$4,$5*
1,1,$1+$1,$6,$7*
1,1,$1+$1,$8,$9*
0 Add four rect primitives between the rounded corners*
20,1,$1+$1,$2,$3,$4,$5,0*
20,1,$1+$1,$4,$5,$6,$7,0*
20,1,$1+$1,$6,$7,$8,$9,0*
20,1,$1+$1,$8,$9,$2,$3,0*%
G04 Aperture macros list end*
%ADD10C,0.300000*%
%ADD11C,0.150000*%
%ADD12C,0.120000*%
%ADD13C,0.127000*%
%ADD14C,0.200000*%
%ADD15C,3.800000*%
%ADD16C,1.600000*%
%ADD17RoundRect,0.250000X0.450000X-0.262500X0.450000X0.262500X-0.450000X0.262500X-0.450000X-0.262500X0*%
%ADD18RoundRect,0.153250X0.153750X-0.733750X0.153750X0.733750X-0.153750X0.733750X-0.153750X-0.733750X0*%
%ADD19R,3.100000X5.000000*%
%ADD20RoundRect,0.249999X-0.512501X-1.075001X0.512501X-1.075001X0.512501X1.075001X-0.512501X1.075001X0*%
%ADD21R,1.700000X1.700000*%
%ADD22O,1.700000X1.700000*%
%ADD23R,1.800000X1.800000*%
%ADD24O,1.800000X1.800000*%
%ADD25R,1.100000X4.600000*%
%ADD26R,10.800000X9.400000*%
%ADD27RoundRect,0.250000X-0.250000X-0.475000X0.250000X-0.475000X0.250000X0.475000X-0.250000X0.475000X0*%
%ADD28RoundRect,0.250000X-0.450000X0.262500X-0.450000X-0.262500X0.450000X-0.262500X0.450000X0.262500X0*%
%ADD29R,1.600000X1.600000*%
%ADD30RoundRect,0.250000X0.250000X0.475000X-0.250000X0.475000X-0.250000X-0.475000X0.250000X-0.475000X0*%
%ADD31C,6.204000*%
%ADD32RoundRect,0.102000X3.000000X-3.000000X3.000000X3.000000X-3.000000X3.000000X-3.000000X-3.000000X0*%
%ADD33RoundRect,0.177000X-0.225000X0.875000X-0.225000X-0.875000X0.225000X-0.875000X0.225000X0.875000X0*%
%ADD34RoundRect,0.102000X-1.104900X0.304800X-1.104900X-0.304800X1.104900X-0.304800X1.104900X0.304800X0*%
%ADD35RoundRect,0.250000X-0.700000X1.825000X-0.700000X-1.825000X0.700000X-1.825000X0.700000X1.825000X0*%
%ADD36RoundRect,0.150000X-0.825000X-0.150000X0.825000X-0.150000X0.825000X0.150000X-0.825000X0.150000X0*%
%ADD37RoundRect,0.102000X-0.876300X-0.876300X0.876300X-0.876300X0.876300X0.876300X-0.876300X0.876300X0*%
%ADD38C,1.956600*%
%ADD39C,5.000000*%
%ADD40RoundRect,0.250000X0.700000X-1.825000X0.700000X1.825000X-0.700000X1.825000X-0.700000X-1.825000X0*%
%ADD41R,2.500000X2.500000*%
%ADD42C,2.500000*%
%ADD43RoundRect,0.150000X0.825000X0.150000X-0.825000X0.150000X-0.825000X-0.150000X0.825000X-0.150000X0*%
G04 APERTURE END LIST*
D10*
X165907142Y-95671428D02*
X165907142Y-94528571D01*
X165428571Y-100107142D02*
X166571428Y-100107142D01*
X166000000Y-100678571D02*
X166000000Y-99535714D01*
D11*
X147166666Y-103352380D02*
X147738095Y-103352380D01*
X147452380Y-104352380D02*
X147452380Y-103352380D01*
X148500000Y-103685714D02*
X148500000Y-104352380D01*
X148071428Y-103685714D02*
X148071428Y-104209523D01*
X148119047Y-104304761D01*
X148214285Y-104352380D01*
X148357142Y-104352380D01*
X148452380Y-104304761D01*
X148500000Y-104257142D01*
X148976190Y-104352380D02*
X148976190Y-103685714D01*
X148976190Y-103876190D02*
X149023809Y-103780952D01*
X149071428Y-103733333D01*
X149166666Y-103685714D01*
X149261904Y-103685714D01*
X149595238Y-103685714D02*
X149595238Y-104352380D01*
X149595238Y-103780952D02*
X149642857Y-103733333D01*
X149738095Y-103685714D01*
X149880952Y-103685714D01*
X149976190Y-103733333D01*
X150023809Y-103828571D01*
X150023809Y-104352380D01*
X151452380Y-103352380D02*
X151642857Y-103352380D01*
X151738095Y-103400000D01*
X151833333Y-103495238D01*
X151880952Y-103685714D01*
X151880952Y-104019047D01*
X151833333Y-104209523D01*
X151738095Y-104304761D01*
X151642857Y-104352380D01*
X151452380Y-104352380D01*
X151357142Y-104304761D01*
X151261904Y-104209523D01*
X151214285Y-104019047D01*
X151214285Y-103685714D01*
X151261904Y-103495238D01*
X151357142Y-103400000D01*
X151452380Y-103352380D01*
X152309523Y-104352380D02*
X152309523Y-103352380D01*
X152880952Y-104352380D01*
X152880952Y-103352380D01*
X154071428Y-103304761D02*
X153214285Y-104590476D01*
X154595238Y-103352380D02*
X154785714Y-103352380D01*
X154880952Y-103400000D01*
X154976190Y-103495238D01*
X155023809Y-103685714D01*
X155023809Y-104019047D01*
X154976190Y-104209523D01*
X154880952Y-104304761D01*
X154785714Y-104352380D01*
X154595238Y-104352380D01*
X154500000Y-104304761D01*
X154404761Y-104209523D01*
X154357142Y-104019047D01*
X154357142Y-103685714D01*
X154404761Y-103495238D01*
X154500000Y-103400000D01*
X154595238Y-103352380D01*
X155785714Y-103828571D02*
X155452380Y-103828571D01*
X155452380Y-104352380D02*
X155452380Y-103352380D01*
X155928571Y-103352380D01*
X156642857Y-103828571D02*
X156309523Y-103828571D01*
X156309523Y-104352380D02*
X156309523Y-103352380D01*
X156785714Y-103352380D01*
X121976190Y-159202380D02*
X121976190Y-158202380D01*
X122547619Y-159202380D01*
X122547619Y-158202380D01*
X123166666Y-159202380D02*
X123071428Y-159154761D01*
X123023809Y-159107142D01*
X122976190Y-159011904D01*
X122976190Y-158726190D01*
X123023809Y-158630952D01*
X123071428Y-158583333D01*
X123166666Y-158535714D01*
X123309523Y-158535714D01*
X123404761Y-158583333D01*
X123452380Y-158630952D01*
X123500000Y-158726190D01*
X123500000Y-159011904D01*
X123452380Y-159107142D01*
X123404761Y-159154761D01*
X123309523Y-159202380D01*
X123166666Y-159202380D01*
X124357142Y-159202380D02*
X124357142Y-158202380D01*
X124357142Y-159154761D02*
X124261904Y-159202380D01*
X124071428Y-159202380D01*
X123976190Y-159154761D01*
X123928571Y-159107142D01*
X123880952Y-159011904D01*
X123880952Y-158726190D01*
X123928571Y-158630952D01*
X123976190Y-158583333D01*
X124071428Y-158535714D01*
X124261904Y-158535714D01*
X124357142Y-158583333D01*
X125214285Y-159154761D02*
X125119047Y-159202380D01*
X124928571Y-159202380D01*
X124833333Y-159154761D01*
X124785714Y-159059523D01*
X124785714Y-158678571D01*
X124833333Y-158583333D01*
X124928571Y-158535714D01*
X125119047Y-158535714D01*
X125214285Y-158583333D01*
X125261904Y-158678571D01*
X125261904Y-158773809D01*
X124785714Y-158869047D01*
X125690476Y-159202380D02*
X125690476Y-158202380D01*
X126023809Y-158916666D01*
X126357142Y-158202380D01*
X126357142Y-159202380D01*
X127261904Y-159154761D02*
X127166666Y-159202380D01*
X126976190Y-159202380D01*
X126880952Y-159154761D01*
X126833333Y-159107142D01*
X126785714Y-159011904D01*
X126785714Y-158726190D01*
X126833333Y-158630952D01*
X126880952Y-158583333D01*
X126976190Y-158535714D01*
X127166666Y-158535714D01*
X127261904Y-158583333D01*
X128119047Y-158535714D02*
X128119047Y-159202380D01*
X127690476Y-158535714D02*
X127690476Y-159059523D01*
X127738095Y-159154761D01*
X127833333Y-159202380D01*
X127976190Y-159202380D01*
X128071428Y-159154761D01*
X128119047Y-159107142D01*
X129261904Y-158535714D02*
X129500000Y-159202380D01*
X129738095Y-158535714D01*
X130071428Y-158297619D02*
X130119047Y-158250000D01*
X130214285Y-158202380D01*
X130452380Y-158202380D01*
X130547619Y-158250000D01*
X130595238Y-158297619D01*
X130642857Y-158392857D01*
X130642857Y-158488095D01*
X130595238Y-158630952D01*
X130023809Y-159202380D01*
X130642857Y-159202380D01*
X131833333Y-158678571D02*
X132166666Y-158678571D01*
X132309523Y-159202380D02*
X131833333Y-159202380D01*
X131833333Y-158202380D01*
X132309523Y-158202380D01*
X132690476Y-159154761D02*
X132833333Y-159202380D01*
X133071428Y-159202380D01*
X133166666Y-159154761D01*
X133214285Y-159107142D01*
X133261904Y-159011904D01*
X133261904Y-158916666D01*
X133214285Y-158821428D01*
X133166666Y-158773809D01*
X133071428Y-158726190D01*
X132880952Y-158678571D01*
X132785714Y-158630952D01*
X132738095Y-158583333D01*
X132690476Y-158488095D01*
X132690476Y-158392857D01*
X132738095Y-158297619D01*
X132785714Y-158250000D01*
X132880952Y-158202380D01*
X133119047Y-158202380D01*
X133261904Y-158250000D01*
X133690476Y-159202380D02*
X133690476Y-158202380D01*
X134071428Y-158202380D01*
X134166666Y-158250000D01*
X134214285Y-158297619D01*
X134261904Y-158392857D01*
X134261904Y-158535714D01*
X134214285Y-158630952D01*
X134166666Y-158678571D01*
X134071428Y-158726190D01*
X133690476Y-158726190D01*
X134833333Y-158630952D02*
X134738095Y-158583333D01*
X134690476Y-158535714D01*
X134642857Y-158440476D01*
X134642857Y-158392857D01*
X134690476Y-158297619D01*
X134738095Y-158250000D01*
X134833333Y-158202380D01*
X135023809Y-158202380D01*
X135119047Y-158250000D01*
X135166666Y-158297619D01*
X135214285Y-158392857D01*
X135214285Y-158440476D01*
X135166666Y-158535714D01*
X135119047Y-158583333D01*
X135023809Y-158630952D01*
X134833333Y-158630952D01*
X134738095Y-158678571D01*
X134690476Y-158726190D01*
X134642857Y-158821428D01*
X134642857Y-159011904D01*
X134690476Y-159107142D01*
X134738095Y-159154761D01*
X134833333Y-159202380D01*
X135023809Y-159202380D01*
X135119047Y-159154761D01*
X135166666Y-159107142D01*
X135214285Y-159011904D01*
X135214285Y-158821428D01*
X135166666Y-158726190D01*
X135119047Y-158678571D01*
X135023809Y-158630952D01*
X135595238Y-158297619D02*
X135642857Y-158250000D01*
X135738095Y-158202380D01*
X135976190Y-158202380D01*
X136071428Y-158250000D01*
X136119047Y-158297619D01*
X136166666Y-158392857D01*
X136166666Y-158488095D01*
X136119047Y-158630952D01*
X135547619Y-159202380D01*
X136166666Y-159202380D01*
X137023809Y-158202380D02*
X136833333Y-158202380D01*
X136738095Y-158250000D01*
X136690476Y-158297619D01*
X136595238Y-158440476D01*
X136547619Y-158630952D01*
X136547619Y-159011904D01*
X136595238Y-159107142D01*
X136642857Y-159154761D01*
X136738095Y-159202380D01*
X136928571Y-159202380D01*
X137023809Y-159154761D01*
X137071428Y-159107142D01*
X137119047Y-159011904D01*
X137119047Y-158773809D01*
X137071428Y-158678571D01*
X137023809Y-158630952D01*
X136928571Y-158583333D01*
X136738095Y-158583333D01*
X136642857Y-158630952D01*
X136595238Y-158678571D01*
X136547619Y-158773809D01*
X137976190Y-158202380D02*
X137785714Y-158202380D01*
X137690476Y-158250000D01*
X137642857Y-158297619D01*
X137547619Y-158440476D01*
X137500000Y-158630952D01*
X137500000Y-159011904D01*
X137547619Y-159107142D01*
X137595238Y-159154761D01*
X137690476Y-159202380D01*
X137880952Y-159202380D01*
X137976190Y-159154761D01*
X138023809Y-159107142D01*
X138071428Y-159011904D01*
X138071428Y-158773809D01*
X138023809Y-158678571D01*
X137976190Y-158630952D01*
X137880952Y-158583333D01*
X137690476Y-158583333D01*
X137595238Y-158630952D01*
X137547619Y-158678571D01*
X137500000Y-158773809D01*
X115633333Y-80157142D02*
X115585714Y-80204761D01*
X115442857Y-80252380D01*
X115347619Y-80252380D01*
X115204761Y-80204761D01*
X115109523Y-80109523D01*
X115061904Y-80014285D01*
X115014285Y-79823809D01*
X115014285Y-79680952D01*
X115061904Y-79490476D01*
X115109523Y-79395238D01*
X115204761Y-79300000D01*
X115347619Y-79252380D01*
X115442857Y-79252380D01*
X115585714Y-79300000D01*
X115633333Y-79347619D01*
X116490476Y-79585714D02*
X116490476Y-80252380D01*
X116252380Y-79204761D02*
X116014285Y-79919047D01*
X116633333Y-79919047D01*
X139133333Y-128464880D02*
X138800000Y-127988690D01*
X138561904Y-128464880D02*
X138561904Y-127464880D01*
X138942857Y-127464880D01*
X139038095Y-127512500D01*
X139085714Y-127560119D01*
X139133333Y-127655357D01*
X139133333Y-127798214D01*
X139085714Y-127893452D01*
X139038095Y-127941071D01*
X138942857Y-127988690D01*
X138561904Y-127988690D01*
X140038095Y-127464880D02*
X139561904Y-127464880D01*
X139514285Y-127941071D01*
X139561904Y-127893452D01*
X139657142Y-127845833D01*
X139895238Y-127845833D01*
X139990476Y-127893452D01*
X140038095Y-127941071D01*
X140085714Y-128036309D01*
X140085714Y-128274404D01*
X140038095Y-128369642D01*
X139990476Y-128417261D01*
X139895238Y-128464880D01*
X139657142Y-128464880D01*
X139561904Y-128417261D01*
X139514285Y-128369642D01*
X129238095Y-120452380D02*
X129238095Y-121261904D01*
X129285714Y-121357142D01*
X129333333Y-121404761D01*
X129428571Y-121452380D01*
X129619047Y-121452380D01*
X129714285Y-121404761D01*
X129761904Y-121357142D01*
X129809523Y-121261904D01*
X129809523Y-120452380D01*
X130761904Y-120452380D02*
X130285714Y-120452380D01*
X130238095Y-120928571D01*
X130285714Y-120880952D01*
X130380952Y-120833333D01*
X130619047Y-120833333D01*
X130714285Y-120880952D01*
X130761904Y-120928571D01*
X130809523Y-121023809D01*
X130809523Y-121261904D01*
X130761904Y-121357142D01*
X130714285Y-121404761D01*
X130619047Y-121452380D01*
X130380952Y-121452380D01*
X130285714Y-121404761D01*
X130238095Y-121357142D01*
X112233333Y-113262380D02*
X111900000Y-112786190D01*
X111661904Y-113262380D02*
X111661904Y-112262380D01*
X112042857Y-112262380D01*
X112138095Y-112310000D01*
X112185714Y-112357619D01*
X112233333Y-112452857D01*
X112233333Y-112595714D01*
X112185714Y-112690952D01*
X112138095Y-112738571D01*
X112042857Y-112786190D01*
X111661904Y-112786190D01*
X112566666Y-112262380D02*
X113185714Y-112262380D01*
X112852380Y-112643333D01*
X112995238Y-112643333D01*
X113090476Y-112690952D01*
X113138095Y-112738571D01*
X113185714Y-112833809D01*
X113185714Y-113071904D01*
X113138095Y-113167142D01*
X113090476Y-113214761D01*
X112995238Y-113262380D01*
X112709523Y-113262380D01*
X112614285Y-113214761D01*
X112566666Y-113167142D01*
X158633333Y-144552380D02*
X158157142Y-144552380D01*
X158157142Y-143552380D01*
X159490476Y-144552380D02*
X158919047Y-144552380D01*
X159204761Y-144552380D02*
X159204761Y-143552380D01*
X159109523Y-143695238D01*
X159014285Y-143790476D01*
X158919047Y-143838095D01*
X158461904Y-135352380D02*
X158461904Y-134352380D01*
X158700000Y-134352380D01*
X158842857Y-134400000D01*
X158938095Y-134495238D01*
X158985714Y-134590476D01*
X159033333Y-134780952D01*
X159033333Y-134923809D01*
X158985714Y-135114285D01*
X158938095Y-135209523D01*
X158842857Y-135304761D01*
X158700000Y-135352380D01*
X158461904Y-135352380D01*
X159509523Y-135352380D02*
X159700000Y-135352380D01*
X159795238Y-135304761D01*
X159842857Y-135257142D01*
X159938095Y-135114285D01*
X159985714Y-134923809D01*
X159985714Y-134542857D01*
X159938095Y-134447619D01*
X159890476Y-134400000D01*
X159795238Y-134352380D01*
X159604761Y-134352380D01*
X159509523Y-134400000D01*
X159461904Y-134447619D01*
X159414285Y-134542857D01*
X159414285Y-134780952D01*
X159461904Y-134876190D01*
X159509523Y-134923809D01*
X159604761Y-134971428D01*
X159795238Y-134971428D01*
X159890476Y-134923809D01*
X159938095Y-134876190D01*
X159985714Y-134780952D01*
X148761904Y-64452380D02*
X148761904Y-63452380D01*
X149000000Y-63452380D01*
X149142857Y-63500000D01*
X149238095Y-63595238D01*
X149285714Y-63690476D01*
X149333333Y-63880952D01*
X149333333Y-64023809D01*
X149285714Y-64214285D01*
X149238095Y-64309523D01*
X149142857Y-64404761D01*
X149000000Y-64452380D01*
X148761904Y-64452380D01*
X149904761Y-63880952D02*
X149809523Y-63833333D01*
X149761904Y-63785714D01*
X149714285Y-63690476D01*
X149714285Y-63642857D01*
X149761904Y-63547619D01*
X149809523Y-63500000D01*
X149904761Y-63452380D01*
X150095238Y-63452380D01*
X150190476Y-63500000D01*
X150238095Y-63547619D01*
X150285714Y-63642857D01*
X150285714Y-63690476D01*
X150238095Y-63785714D01*
X150190476Y-63833333D01*
X150095238Y-63880952D01*
X149904761Y-63880952D01*
X149809523Y-63928571D01*
X149761904Y-63976190D01*
X149714285Y-64071428D01*
X149714285Y-64261904D01*
X149761904Y-64357142D01*
X149809523Y-64404761D01*
X149904761Y-64452380D01*
X150095238Y-64452380D01*
X150190476Y-64404761D01*
X150238095Y-64357142D01*
X150285714Y-64261904D01*
X150285714Y-64071428D01*
X150238095Y-63976190D01*
X150190476Y-63928571D01*
X150095238Y-63880952D01*
X143578095Y-62552380D02*
X143578095Y-61552380D01*
X144149523Y-62552380D02*
X143720952Y-61980952D01*
X144149523Y-61552380D02*
X143578095Y-62123809D01*
X133833333Y-82357142D02*
X133785714Y-82404761D01*
X133642857Y-82452380D01*
X133547619Y-82452380D01*
X133404761Y-82404761D01*
X133309523Y-82309523D01*
X133261904Y-82214285D01*
X133214285Y-82023809D01*
X133214285Y-81880952D01*
X133261904Y-81690476D01*
X133309523Y-81595238D01*
X133404761Y-81500000D01*
X133547619Y-81452380D01*
X133642857Y-81452380D01*
X133785714Y-81500000D01*
X133833333Y-81547619D01*
X134214285Y-81547619D02*
X134261904Y-81500000D01*
X134357142Y-81452380D01*
X134595238Y-81452380D01*
X134690476Y-81500000D01*
X134738095Y-81547619D01*
X134785714Y-81642857D01*
X134785714Y-81738095D01*
X134738095Y-81880952D01*
X134166666Y-82452380D01*
X134785714Y-82452380D01*
X164513095Y-132377380D02*
X164513095Y-133186904D01*
X164560714Y-133282142D01*
X164608333Y-133329761D01*
X164703571Y-133377380D01*
X164894047Y-133377380D01*
X164989285Y-133329761D01*
X165036904Y-133282142D01*
X165084523Y-133186904D01*
X165084523Y-132377380D01*
X165608333Y-133377380D02*
X165798809Y-133377380D01*
X165894047Y-133329761D01*
X165941666Y-133282142D01*
X166036904Y-133139285D01*
X166084523Y-132948809D01*
X166084523Y-132567857D01*
X166036904Y-132472619D01*
X165989285Y-132425000D01*
X165894047Y-132377380D01*
X165703571Y-132377380D01*
X165608333Y-132425000D01*
X165560714Y-132472619D01*
X165513095Y-132567857D01*
X165513095Y-132805952D01*
X165560714Y-132901190D01*
X165608333Y-132948809D01*
X165703571Y-132996428D01*
X165894047Y-132996428D01*
X165989285Y-132948809D01*
X166036904Y-132901190D01*
X166084523Y-132805952D01*
X107803333Y-78537142D02*
X107755714Y-78584761D01*
X107612857Y-78632380D01*
X107517619Y-78632380D01*
X107374761Y-78584761D01*
X107279523Y-78489523D01*
X107231904Y-78394285D01*
X107184285Y-78203809D01*
X107184285Y-78060952D01*
X107231904Y-77870476D01*
X107279523Y-77775238D01*
X107374761Y-77680000D01*
X107517619Y-77632380D01*
X107612857Y-77632380D01*
X107755714Y-77680000D01*
X107803333Y-77727619D01*
X108708095Y-77632380D02*
X108231904Y-77632380D01*
X108184285Y-78108571D01*
X108231904Y-78060952D01*
X108327142Y-78013333D01*
X108565238Y-78013333D01*
X108660476Y-78060952D01*
X108708095Y-78108571D01*
X108755714Y-78203809D01*
X108755714Y-78441904D01*
X108708095Y-78537142D01*
X108660476Y-78584761D01*
X108565238Y-78632380D01*
X108327142Y-78632380D01*
X108231904Y-78584761D01*
X108184285Y-78537142D01*
X140633333Y-82952380D02*
X140300000Y-82476190D01*
X140061904Y-82952380D02*
X140061904Y-81952380D01*
X140442857Y-81952380D01*
X140538095Y-82000000D01*
X140585714Y-82047619D01*
X140633333Y-82142857D01*
X140633333Y-82285714D01*
X140585714Y-82380952D01*
X140538095Y-82428571D01*
X140442857Y-82476190D01*
X140061904Y-82476190D01*
X141014285Y-82047619D02*
X141061904Y-82000000D01*
X141157142Y-81952380D01*
X141395238Y-81952380D01*
X141490476Y-82000000D01*
X141538095Y-82047619D01*
X141585714Y-82142857D01*
X141585714Y-82238095D01*
X141538095Y-82380952D01*
X140966666Y-82952380D01*
X141585714Y-82952380D01*
X151781338Y-78538022D02*
X151733719Y-78585641D01*
X151590862Y-78633260D01*
X151495624Y-78633260D01*
X151352766Y-78585641D01*
X151257528Y-78490403D01*
X151209909Y-78395165D01*
X151162290Y-78204689D01*
X151162290Y-78061832D01*
X151209909Y-77871356D01*
X151257528Y-77776118D01*
X151352766Y-77680880D01*
X151495624Y-77633260D01*
X151590862Y-77633260D01*
X151733719Y-77680880D01*
X151781338Y-77728499D01*
X152352766Y-78061832D02*
X152257528Y-78014213D01*
X152209909Y-77966594D01*
X152162290Y-77871356D01*
X152162290Y-77823737D01*
X152209909Y-77728499D01*
X152257528Y-77680880D01*
X152352766Y-77633260D01*
X152543243Y-77633260D01*
X152638481Y-77680880D01*
X152686100Y-77728499D01*
X152733719Y-77823737D01*
X152733719Y-77871356D01*
X152686100Y-77966594D01*
X152638481Y-78014213D01*
X152543243Y-78061832D01*
X152352766Y-78061832D01*
X152257528Y-78109451D01*
X152209909Y-78157070D01*
X152162290Y-78252308D01*
X152162290Y-78442784D01*
X152209909Y-78538022D01*
X152257528Y-78585641D01*
X152352766Y-78633260D01*
X152543243Y-78633260D01*
X152638481Y-78585641D01*
X152686100Y-78538022D01*
X152733719Y-78442784D01*
X152733719Y-78252308D01*
X152686100Y-78157070D01*
X152638481Y-78109451D01*
X152543243Y-78061832D01*
X147761904Y-76202380D02*
X147761904Y-75202380D01*
X148000000Y-75202380D01*
X148142857Y-75250000D01*
X148238095Y-75345238D01*
X148285714Y-75440476D01*
X148333333Y-75630952D01*
X148333333Y-75773809D01*
X148285714Y-75964285D01*
X148238095Y-76059523D01*
X148142857Y-76154761D01*
X148000000Y-76202380D01*
X147761904Y-76202380D01*
X149238095Y-75202380D02*
X148761904Y-75202380D01*
X148714285Y-75678571D01*
X148761904Y-75630952D01*
X148857142Y-75583333D01*
X149095238Y-75583333D01*
X149190476Y-75630952D01*
X149238095Y-75678571D01*
X149285714Y-75773809D01*
X149285714Y-76011904D01*
X149238095Y-76107142D01*
X149190476Y-76154761D01*
X149095238Y-76202380D01*
X148857142Y-76202380D01*
X148761904Y-76154761D01*
X148714285Y-76107142D01*
X153738095Y-78152380D02*
X153738095Y-77152380D01*
X154309523Y-78152380D02*
X153880952Y-77580952D01*
X154309523Y-77152380D02*
X153738095Y-77723809D01*
X134833333Y-90157142D02*
X134785714Y-90204761D01*
X134642857Y-90252380D01*
X134547619Y-90252380D01*
X134404761Y-90204761D01*
X134309523Y-90109523D01*
X134261904Y-90014285D01*
X134214285Y-89823809D01*
X134214285Y-89680952D01*
X134261904Y-89490476D01*
X134309523Y-89395238D01*
X134404761Y-89300000D01*
X134547619Y-89252380D01*
X134642857Y-89252380D01*
X134785714Y-89300000D01*
X134833333Y-89347619D01*
X135785714Y-90252380D02*
X135214285Y-90252380D01*
X135500000Y-90252380D02*
X135500000Y-89252380D01*
X135404761Y-89395238D01*
X135309523Y-89490476D01*
X135214285Y-89538095D01*
X151780731Y-81978080D02*
X151733112Y-82025699D01*
X151590255Y-82073318D01*
X151495017Y-82073318D01*
X151352159Y-82025699D01*
X151256921Y-81930461D01*
X151209302Y-81835223D01*
X151161683Y-81644747D01*
X151161683Y-81501890D01*
X151209302Y-81311414D01*
X151256921Y-81216176D01*
X151352159Y-81120938D01*
X151495017Y-81073318D01*
X151590255Y-81073318D01*
X151733112Y-81120938D01*
X151780731Y-81168557D01*
X152114064Y-81073318D02*
X152780731Y-81073318D01*
X152352159Y-82073318D01*
X118483333Y-88207142D02*
X118435714Y-88254761D01*
X118292857Y-88302380D01*
X118197619Y-88302380D01*
X118054761Y-88254761D01*
X117959523Y-88159523D01*
X117911904Y-88064285D01*
X117864285Y-87873809D01*
X117864285Y-87730952D01*
X117911904Y-87540476D01*
X117959523Y-87445238D01*
X118054761Y-87350000D01*
X118197619Y-87302380D01*
X118292857Y-87302380D01*
X118435714Y-87350000D01*
X118483333Y-87397619D01*
X118816666Y-87302380D02*
X119435714Y-87302380D01*
X119102380Y-87683333D01*
X119245238Y-87683333D01*
X119340476Y-87730952D01*
X119388095Y-87778571D01*
X119435714Y-87873809D01*
X119435714Y-88111904D01*
X119388095Y-88207142D01*
X119340476Y-88254761D01*
X119245238Y-88302380D01*
X118959523Y-88302380D01*
X118864285Y-88254761D01*
X118816666Y-88207142D01*
X107803333Y-81977142D02*
X107755714Y-82024761D01*
X107612857Y-82072380D01*
X107517619Y-82072380D01*
X107374761Y-82024761D01*
X107279523Y-81929523D01*
X107231904Y-81834285D01*
X107184285Y-81643809D01*
X107184285Y-81500952D01*
X107231904Y-81310476D01*
X107279523Y-81215238D01*
X107374761Y-81120000D01*
X107517619Y-81072380D01*
X107612857Y-81072380D01*
X107755714Y-81120000D01*
X107803333Y-81167619D01*
X108660476Y-81072380D02*
X108470000Y-81072380D01*
X108374761Y-81120000D01*
X108327142Y-81167619D01*
X108231904Y-81310476D01*
X108184285Y-81500952D01*
X108184285Y-81881904D01*
X108231904Y-81977142D01*
X108279523Y-82024761D01*
X108374761Y-82072380D01*
X108565238Y-82072380D01*
X108660476Y-82024761D01*
X108708095Y-81977142D01*
X108755714Y-81881904D01*
X108755714Y-81643809D01*
X108708095Y-81548571D01*
X108660476Y-81500952D01*
X108565238Y-81453333D01*
X108374761Y-81453333D01*
X108279523Y-81500952D01*
X108231904Y-81548571D01*
X108184285Y-81643809D01*
X129296345Y-106452380D02*
X129296345Y-107261904D01*
X129343964Y-107357142D01*
X129391583Y-107404761D01*
X129486821Y-107452380D01*
X129677297Y-107452380D01*
X129772535Y-107404761D01*
X129820154Y-107357142D01*
X129867773Y-107261904D01*
X129867773Y-106452380D01*
X130772535Y-106452380D02*
X130582059Y-106452380D01*
X130486821Y-106500000D01*
X130439202Y-106547619D01*
X130343964Y-106690476D01*
X130296345Y-106880952D01*
X130296345Y-107261904D01*
X130343964Y-107357142D01*
X130391583Y-107404761D01*
X130486821Y-107452380D01*
X130677297Y-107452380D01*
X130772535Y-107404761D01*
X130820154Y-107357142D01*
X130867773Y-107261904D01*
X130867773Y-107023809D01*
X130820154Y-106928571D01*
X130772535Y-106880952D01*
X130677297Y-106833333D01*
X130486821Y-106833333D01*
X130391583Y-106880952D01*
X130343964Y-106928571D01*
X130296345Y-107023809D01*
X134488095Y-95702380D02*
X134488095Y-96511904D01*
X134535714Y-96607142D01*
X134583333Y-96654761D01*
X134678571Y-96702380D01*
X134869047Y-96702380D01*
X134964285Y-96654761D01*
X135011904Y-96607142D01*
X135059523Y-96511904D01*
X135059523Y-95702380D01*
X135440476Y-95702380D02*
X136059523Y-95702380D01*
X135726190Y-96083333D01*
X135869047Y-96083333D01*
X135964285Y-96130952D01*
X136011904Y-96178571D01*
X136059523Y-96273809D01*
X136059523Y-96511904D01*
X136011904Y-96607142D01*
X135964285Y-96654761D01*
X135869047Y-96702380D01*
X135583333Y-96702380D01*
X135488095Y-96654761D01*
X135440476Y-96607142D01*
X109761904Y-67702380D02*
X109761904Y-66702380D01*
X110000000Y-66702380D01*
X110142857Y-66750000D01*
X110238095Y-66845238D01*
X110285714Y-66940476D01*
X110333333Y-67130952D01*
X110333333Y-67273809D01*
X110285714Y-67464285D01*
X110238095Y-67559523D01*
X110142857Y-67654761D01*
X110000000Y-67702380D01*
X109761904Y-67702380D01*
X110714285Y-66797619D02*
X110761904Y-66750000D01*
X110857142Y-66702380D01*
X111095238Y-66702380D01*
X111190476Y-66750000D01*
X111238095Y-66797619D01*
X111285714Y-66892857D01*
X111285714Y-66988095D01*
X111238095Y-67130952D01*
X110666666Y-67702380D01*
X111285714Y-67702380D01*
X115818095Y-69602380D02*
X115818095Y-68602380D01*
X116389523Y-69602380D02*
X115960952Y-69030952D01*
X116389523Y-68602380D02*
X115818095Y-69173809D01*
X160657142Y-112057142D02*
X160609523Y-112104761D01*
X160466666Y-112152380D01*
X160371428Y-112152380D01*
X160228571Y-112104761D01*
X160133333Y-112009523D01*
X160085714Y-111914285D01*
X160038095Y-111723809D01*
X160038095Y-111580952D01*
X160085714Y-111390476D01*
X160133333Y-111295238D01*
X160228571Y-111200000D01*
X160371428Y-111152380D01*
X160466666Y-111152380D01*
X160609523Y-111200000D01*
X160657142Y-111247619D01*
X161609523Y-112152380D02*
X161038095Y-112152380D01*
X161323809Y-112152380D02*
X161323809Y-111152380D01*
X161228571Y-111295238D01*
X161133333Y-111390476D01*
X161038095Y-111438095D01*
X162228571Y-111152380D02*
X162323809Y-111152380D01*
X162419047Y-111200000D01*
X162466666Y-111247619D01*
X162514285Y-111342857D01*
X162561904Y-111533333D01*
X162561904Y-111771428D01*
X162514285Y-111961904D01*
X162466666Y-112057142D01*
X162419047Y-112104761D01*
X162323809Y-112152380D01*
X162228571Y-112152380D01*
X162133333Y-112104761D01*
X162085714Y-112057142D01*
X162038095Y-111961904D01*
X161990476Y-111771428D01*
X161990476Y-111533333D01*
X162038095Y-111342857D01*
X162085714Y-111247619D01*
X162133333Y-111200000D01*
X162228571Y-111152380D01*
X112233333Y-117012380D02*
X111900000Y-116536190D01*
X111661904Y-117012380D02*
X111661904Y-116012380D01*
X112042857Y-116012380D01*
X112138095Y-116060000D01*
X112185714Y-116107619D01*
X112233333Y-116202857D01*
X112233333Y-116345714D01*
X112185714Y-116440952D01*
X112138095Y-116488571D01*
X112042857Y-116536190D01*
X111661904Y-116536190D01*
X113090476Y-116345714D02*
X113090476Y-117012380D01*
X112852380Y-115964761D02*
X112614285Y-116679047D01*
X113233333Y-116679047D01*
X149657142Y-121257142D02*
X149609523Y-121304761D01*
X149466666Y-121352380D01*
X149371428Y-121352380D01*
X149228571Y-121304761D01*
X149133333Y-121209523D01*
X149085714Y-121114285D01*
X149038095Y-120923809D01*
X149038095Y-120780952D01*
X149085714Y-120590476D01*
X149133333Y-120495238D01*
X149228571Y-120400000D01*
X149371428Y-120352380D01*
X149466666Y-120352380D01*
X149609523Y-120400000D01*
X149657142Y-120447619D01*
X150609523Y-121352380D02*
X150038095Y-121352380D01*
X150323809Y-121352380D02*
X150323809Y-120352380D01*
X150228571Y-120495238D01*
X150133333Y-120590476D01*
X150038095Y-120638095D01*
X151561904Y-121352380D02*
X150990476Y-121352380D01*
X151276190Y-121352380D02*
X151276190Y-120352380D01*
X151180952Y-120495238D01*
X151085714Y-120590476D01*
X150990476Y-120638095D01*
X141033333Y-128464880D02*
X140700000Y-127988690D01*
X140461904Y-128464880D02*
X140461904Y-127464880D01*
X140842857Y-127464880D01*
X140938095Y-127512500D01*
X140985714Y-127560119D01*
X141033333Y-127655357D01*
X141033333Y-127798214D01*
X140985714Y-127893452D01*
X140938095Y-127941071D01*
X140842857Y-127988690D01*
X140461904Y-127988690D01*
X141890476Y-127464880D02*
X141700000Y-127464880D01*
X141604761Y-127512500D01*
X141557142Y-127560119D01*
X141461904Y-127702976D01*
X141414285Y-127893452D01*
X141414285Y-128274404D01*
X141461904Y-128369642D01*
X141509523Y-128417261D01*
X141604761Y-128464880D01*
X141795238Y-128464880D01*
X141890476Y-128417261D01*
X141938095Y-128369642D01*
X141985714Y-128274404D01*
X141985714Y-128036309D01*
X141938095Y-127941071D01*
X141890476Y-127893452D01*
X141795238Y-127845833D01*
X141604761Y-127845833D01*
X141509523Y-127893452D01*
X141461904Y-127941071D01*
X141414285Y-128036309D01*
X101808095Y-80852380D02*
X101808095Y-81661904D01*
X101855714Y-81757142D01*
X101903333Y-81804761D01*
X101998571Y-81852380D01*
X102189047Y-81852380D01*
X102284285Y-81804761D01*
X102331904Y-81757142D01*
X102379523Y-81661904D01*
X102379523Y-80852380D01*
X102760476Y-80852380D02*
X103427142Y-80852380D01*
X102998571Y-81852380D01*
X109761904Y-76202380D02*
X109761904Y-75202380D01*
X110000000Y-75202380D01*
X110142857Y-75250000D01*
X110238095Y-75345238D01*
X110285714Y-75440476D01*
X110333333Y-75630952D01*
X110333333Y-75773809D01*
X110285714Y-75964285D01*
X110238095Y-76059523D01*
X110142857Y-76154761D01*
X110000000Y-76202380D01*
X109761904Y-76202380D01*
X111190476Y-75535714D02*
X111190476Y-76202380D01*
X110952380Y-75154761D02*
X110714285Y-75869047D01*
X111333333Y-75869047D01*
X115818095Y-78102380D02*
X115818095Y-77102380D01*
X116389523Y-78102380D02*
X115960952Y-77530952D01*
X116389523Y-77102380D02*
X115818095Y-77673809D01*
X147761904Y-67702380D02*
X147761904Y-66702380D01*
X148000000Y-66702380D01*
X148142857Y-66750000D01*
X148238095Y-66845238D01*
X148285714Y-66940476D01*
X148333333Y-67130952D01*
X148333333Y-67273809D01*
X148285714Y-67464285D01*
X148238095Y-67559523D01*
X148142857Y-67654761D01*
X148000000Y-67702380D01*
X147761904Y-67702380D01*
X148666666Y-66702380D02*
X149333333Y-66702380D01*
X148904761Y-67702380D01*
X153738095Y-69602380D02*
X153738095Y-68602380D01*
X154309523Y-69602380D02*
X153880952Y-69030952D01*
X154309523Y-68602380D02*
X153738095Y-69173809D01*
X148761904Y-72952380D02*
X148761904Y-71952380D01*
X149000000Y-71952380D01*
X149142857Y-72000000D01*
X149238095Y-72095238D01*
X149285714Y-72190476D01*
X149333333Y-72380952D01*
X149333333Y-72523809D01*
X149285714Y-72714285D01*
X149238095Y-72809523D01*
X149142857Y-72904761D01*
X149000000Y-72952380D01*
X148761904Y-72952380D01*
X150190476Y-71952380D02*
X150000000Y-71952380D01*
X149904761Y-72000000D01*
X149857142Y-72047619D01*
X149761904Y-72190476D01*
X149714285Y-72380952D01*
X149714285Y-72761904D01*
X149761904Y-72857142D01*
X149809523Y-72904761D01*
X149904761Y-72952380D01*
X150095238Y-72952380D01*
X150190476Y-72904761D01*
X150238095Y-72857142D01*
X150285714Y-72761904D01*
X150285714Y-72523809D01*
X150238095Y-72428571D01*
X150190476Y-72380952D01*
X150095238Y-72333333D01*
X149904761Y-72333333D01*
X149809523Y-72380952D01*
X149761904Y-72428571D01*
X149714285Y-72523809D01*
X143578095Y-71052380D02*
X143578095Y-70052380D01*
X144149523Y-71052380D02*
X143720952Y-70480952D01*
X144149523Y-70052380D02*
X143578095Y-70623809D01*
X149657142Y-133157142D02*
X149609523Y-133204761D01*
X149466666Y-133252380D01*
X149371428Y-133252380D01*
X149228571Y-133204761D01*
X149133333Y-133109523D01*
X149085714Y-133014285D01*
X149038095Y-132823809D01*
X149038095Y-132680952D01*
X149085714Y-132490476D01*
X149133333Y-132395238D01*
X149228571Y-132300000D01*
X149371428Y-132252380D01*
X149466666Y-132252380D01*
X149609523Y-132300000D01*
X149657142Y-132347619D01*
X150609523Y-133252380D02*
X150038095Y-133252380D01*
X150323809Y-133252380D02*
X150323809Y-132252380D01*
X150228571Y-132395238D01*
X150133333Y-132490476D01*
X150038095Y-132538095D01*
X150990476Y-132347619D02*
X151038095Y-132300000D01*
X151133333Y-132252380D01*
X151371428Y-132252380D01*
X151466666Y-132300000D01*
X151514285Y-132347619D01*
X151561904Y-132442857D01*
X151561904Y-132538095D01*
X151514285Y-132680952D01*
X150942857Y-133252380D01*
X151561904Y-133252380D01*
X122633333Y-82952380D02*
X122300000Y-82476190D01*
X122061904Y-82952380D02*
X122061904Y-81952380D01*
X122442857Y-81952380D01*
X122538095Y-82000000D01*
X122585714Y-82047619D01*
X122633333Y-82142857D01*
X122633333Y-82285714D01*
X122585714Y-82380952D01*
X122538095Y-82428571D01*
X122442857Y-82476190D01*
X122061904Y-82476190D01*
X123585714Y-82952380D02*
X123014285Y-82952380D01*
X123300000Y-82952380D02*
X123300000Y-81952380D01*
X123204761Y-82095238D01*
X123109523Y-82190476D01*
X123014285Y-82238095D01*
X123912368Y-88671459D02*
X123912368Y-89480983D01*
X123959987Y-89576221D01*
X124007606Y-89623840D01*
X124102844Y-89671459D01*
X124293320Y-89671459D01*
X124388558Y-89623840D01*
X124436177Y-89576221D01*
X124483796Y-89480983D01*
X124483796Y-88671459D01*
X125388558Y-89004793D02*
X125388558Y-89671459D01*
X125150463Y-88623840D02*
X124912368Y-89338126D01*
X125531415Y-89338126D01*
X156588095Y-80852380D02*
X156588095Y-81661904D01*
X156635714Y-81757142D01*
X156683333Y-81804761D01*
X156778571Y-81852380D01*
X156969047Y-81852380D01*
X157064285Y-81804761D01*
X157111904Y-81757142D01*
X157159523Y-81661904D01*
X157159523Y-80852380D01*
X157778571Y-81280952D02*
X157683333Y-81233333D01*
X157635714Y-81185714D01*
X157588095Y-81090476D01*
X157588095Y-81042857D01*
X157635714Y-80947619D01*
X157683333Y-80900000D01*
X157778571Y-80852380D01*
X157969047Y-80852380D01*
X158064285Y-80900000D01*
X158111904Y-80947619D01*
X158159523Y-81042857D01*
X158159523Y-81090476D01*
X158111904Y-81185714D01*
X158064285Y-81233333D01*
X157969047Y-81280952D01*
X157778571Y-81280952D01*
X157683333Y-81328571D01*
X157635714Y-81376190D01*
X157588095Y-81471428D01*
X157588095Y-81661904D01*
X157635714Y-81757142D01*
X157683333Y-81804761D01*
X157778571Y-81852380D01*
X157969047Y-81852380D01*
X158064285Y-81804761D01*
X158111904Y-81757142D01*
X158159523Y-81661904D01*
X158159523Y-81471428D01*
X158111904Y-81376190D01*
X158064285Y-81328571D01*
X157969047Y-81280952D01*
X110761904Y-72952380D02*
X110761904Y-71952380D01*
X111000000Y-71952380D01*
X111142857Y-72000000D01*
X111238095Y-72095238D01*
X111285714Y-72190476D01*
X111333333Y-72380952D01*
X111333333Y-72523809D01*
X111285714Y-72714285D01*
X111238095Y-72809523D01*
X111142857Y-72904761D01*
X111000000Y-72952380D01*
X110761904Y-72952380D01*
X111666666Y-71952380D02*
X112285714Y-71952380D01*
X111952380Y-72333333D01*
X112095238Y-72333333D01*
X112190476Y-72380952D01*
X112238095Y-72428571D01*
X112285714Y-72523809D01*
X112285714Y-72761904D01*
X112238095Y-72857142D01*
X112190476Y-72904761D01*
X112095238Y-72952380D01*
X111809523Y-72952380D01*
X111714285Y-72904761D01*
X111666666Y-72857142D01*
X105658095Y-71052380D02*
X105658095Y-70052380D01*
X106229523Y-71052380D02*
X105800952Y-70480952D01*
X106229523Y-70052380D02*
X105658095Y-70623809D01*
X164133333Y-109957142D02*
X164085714Y-110004761D01*
X163942857Y-110052380D01*
X163847619Y-110052380D01*
X163704761Y-110004761D01*
X163609523Y-109909523D01*
X163561904Y-109814285D01*
X163514285Y-109623809D01*
X163514285Y-109480952D01*
X163561904Y-109290476D01*
X163609523Y-109195238D01*
X163704761Y-109100000D01*
X163847619Y-109052380D01*
X163942857Y-109052380D01*
X164085714Y-109100000D01*
X164133333Y-109147619D01*
X164609523Y-110052380D02*
X164800000Y-110052380D01*
X164895238Y-110004761D01*
X164942857Y-109957142D01*
X165038095Y-109814285D01*
X165085714Y-109623809D01*
X165085714Y-109242857D01*
X165038095Y-109147619D01*
X164990476Y-109100000D01*
X164895238Y-109052380D01*
X164704761Y-109052380D01*
X164609523Y-109100000D01*
X164561904Y-109147619D01*
X164514285Y-109242857D01*
X164514285Y-109480952D01*
X164561904Y-109576190D01*
X164609523Y-109623809D01*
X164704761Y-109671428D01*
X164895238Y-109671428D01*
X164990476Y-109623809D01*
X165038095Y-109576190D01*
X165085714Y-109480952D01*
X110761904Y-64452380D02*
X110761904Y-63452380D01*
X111000000Y-63452380D01*
X111142857Y-63500000D01*
X111238095Y-63595238D01*
X111285714Y-63690476D01*
X111333333Y-63880952D01*
X111333333Y-64023809D01*
X111285714Y-64214285D01*
X111238095Y-64309523D01*
X111142857Y-64404761D01*
X111000000Y-64452380D01*
X110761904Y-64452380D01*
X112285714Y-64452380D02*
X111714285Y-64452380D01*
X112000000Y-64452380D02*
X112000000Y-63452380D01*
X111904761Y-63595238D01*
X111809523Y-63690476D01*
X111714285Y-63738095D01*
X105658095Y-62552380D02*
X105658095Y-61552380D01*
X106229523Y-62552380D02*
X105800952Y-61980952D01*
X106229523Y-61552380D02*
X105658095Y-62123809D01*
D12*
X118070000Y-80855000D02*
X118070000Y-80870000D01*
X113530000Y-78730000D02*
X118070000Y-78730000D01*
X113530000Y-78730000D02*
X113530000Y-78745000D01*
X113530000Y-80870000D02*
X118070000Y-80870000D01*
X118070000Y-78730000D02*
X118070000Y-78745000D01*
X113530000Y-80855000D02*
X113530000Y-80870000D01*
X138565000Y-125727064D02*
X138565000Y-125272936D01*
X140035000Y-125727064D02*
X140035000Y-125272936D01*
D13*
X127500000Y-123200000D02*
X127500000Y-118800000D01*
X132500000Y-123200000D02*
X132500000Y-118800000D01*
D14*
X127840000Y-125240000D02*
G75*
G03*
X127840000Y-125240000I-100000J0D01*
G01*
D12*
X109875000Y-113037064D02*
X109875000Y-112582936D01*
X111345000Y-113037064D02*
X111345000Y-112582936D01*
X153050000Y-137700000D02*
X164550000Y-137700000D01*
X152350000Y-141300000D02*
X152350000Y-138400000D01*
X165250000Y-149850000D02*
X165250000Y-146900000D01*
X164550000Y-150500000D02*
X153050000Y-150500000D01*
X165250000Y-141300000D02*
X165250000Y-138400000D01*
X152350000Y-149800000D02*
X152350000Y-146900000D01*
X164550000Y-150500000D02*
G75*
G03*
X165250000Y-149800000I1J699999D01*
G01*
X152350000Y-149800000D02*
G75*
G03*
X153050000Y-150500000I699999J-1D01*
G01*
X153050000Y-137700000D02*
G75*
G03*
X152350000Y-138400000I-1J-699999D01*
G01*
X165250000Y-138400000D02*
G75*
G03*
X164550000Y-137700000I-699999J1D01*
G01*
X155840000Y-136485000D02*
X161700000Y-136485000D01*
X161700000Y-133315000D02*
X155840000Y-133315000D01*
X155840000Y-133315000D02*
X155840000Y-136485000D01*
X157920000Y-64200000D02*
X157920000Y-62870000D01*
X157920000Y-65470000D02*
X157920000Y-78230000D01*
X160580000Y-65470000D02*
X160580000Y-78230000D01*
X157920000Y-62870000D02*
X159250000Y-62870000D01*
X157920000Y-65470000D02*
X160580000Y-65470000D01*
X157920000Y-78230000D02*
X160580000Y-78230000D01*
X146200000Y-62530000D02*
X146200000Y-65470000D01*
X146200000Y-65470000D02*
X151640000Y-65470000D01*
X152860000Y-64000000D02*
X151640000Y-64000000D01*
X147220000Y-62530000D02*
X147220000Y-65470000D01*
X144980000Y-64000000D02*
X146200000Y-64000000D01*
X151640000Y-65470000D02*
X151640000Y-62530000D01*
X151640000Y-62530000D02*
X146200000Y-62530000D01*
X147100000Y-62530000D02*
X147100000Y-65470000D01*
X146980000Y-62530000D02*
X146980000Y-65470000D01*
X136270000Y-80930000D02*
X136270000Y-80945000D01*
X136270000Y-83055000D02*
X136270000Y-83070000D01*
X131730000Y-83055000D02*
X131730000Y-83070000D01*
X131730000Y-80930000D02*
X136270000Y-80930000D01*
X131730000Y-80930000D02*
X131730000Y-80945000D01*
X131730000Y-83070000D02*
X136270000Y-83070000D01*
X165700000Y-125325000D02*
X165700000Y-126825000D01*
X165700000Y-126825000D02*
X164750000Y-126825000D01*
X164750000Y-126825000D02*
X164750000Y-127925000D01*
X155300000Y-126825000D02*
X156250000Y-126825000D01*
X156250000Y-126825000D02*
X156250000Y-131950000D01*
X155300000Y-125325000D02*
X155300000Y-126825000D01*
X107708748Y-80415000D02*
X108231252Y-80415000D01*
X107708748Y-78945000D02*
X108231252Y-78945000D01*
X138265000Y-82272936D02*
X138265000Y-82727064D01*
X139735000Y-82272936D02*
X139735000Y-82727064D01*
X157000000Y-114800000D02*
X147000000Y-114800000D01*
X147000000Y-104800000D02*
X147000000Y-114800000D01*
X147000000Y-104800000D02*
X157000000Y-104800000D01*
X157000000Y-114800000D02*
X157000000Y-104800000D01*
X152209257Y-80415880D02*
X151686753Y-80415880D01*
X152209257Y-78945880D02*
X151686753Y-78945880D01*
X151640000Y-74280000D02*
X146200000Y-74280000D01*
X150620000Y-77220000D02*
X150620000Y-74280000D01*
X151640000Y-77220000D02*
X151640000Y-74280000D01*
X146200000Y-77220000D02*
X151640000Y-77220000D01*
X150860000Y-77220000D02*
X150860000Y-74280000D01*
X146200000Y-74280000D02*
X146200000Y-77220000D01*
X144980000Y-75750000D02*
X146200000Y-75750000D01*
X150740000Y-77220000D02*
X150740000Y-74280000D01*
X152860000Y-75750000D02*
X151640000Y-75750000D01*
X133650000Y-89551000D02*
X130350000Y-89551000D01*
X135189000Y-87270000D02*
X133040000Y-87270000D01*
X130960000Y-88911000D02*
X129584000Y-88911000D01*
X130960000Y-88071000D02*
X129048000Y-88071000D01*
X133509000Y-89631000D02*
X130491000Y-89631000D01*
X134607000Y-88671000D02*
X133040000Y-88671000D01*
X135131000Y-87551000D02*
X133040000Y-87551000D01*
X134484000Y-88831000D02*
X133040000Y-88831000D01*
X135201000Y-87190000D02*
X133040000Y-87190000D01*
X134916000Y-88151000D02*
X133040000Y-88151000D01*
X135182000Y-87310000D02*
X133040000Y-87310000D01*
X130960000Y-87911000D02*
X128982000Y-87911000D01*
X134636000Y-88631000D02*
X133040000Y-88631000D01*
X134416000Y-88911000D02*
X133040000Y-88911000D01*
X134044000Y-89271000D02*
X129956000Y-89271000D01*
X130960000Y-87871000D02*
X128967000Y-87871000D01*
X130960000Y-87471000D02*
X128850000Y-87471000D01*
X130960000Y-87751000D02*
X128926000Y-87751000D01*
X130960000Y-88351000D02*
X129188000Y-88351000D01*
X130960000Y-88751000D02*
X129452000Y-88751000D01*
X130960000Y-88671000D02*
X129393000Y-88671000D01*
X130960000Y-88191000D02*
X129104000Y-88191000D01*
X135228000Y-86870000D02*
X128772000Y-86870000D01*
X134856000Y-88271000D02*
X133040000Y-88271000D01*
X133890000Y-89391000D02*
X130110000Y-89391000D01*
X130960000Y-87551000D02*
X128869000Y-87551000D01*
X134716000Y-88511000D02*
X133040000Y-88511000D01*
X130960000Y-88471000D02*
X129258000Y-88471000D01*
X130960000Y-88431000D02*
X129234000Y-88431000D01*
X134664000Y-88591000D02*
X133040000Y-88591000D01*
X130960000Y-88111000D02*
X129066000Y-88111000D01*
X130960000Y-88631000D02*
X129364000Y-88631000D01*
X135002000Y-87951000D02*
X133040000Y-87951000D01*
X134450000Y-88871000D02*
X133040000Y-88871000D01*
X135098000Y-87671000D02*
X133040000Y-87671000D01*
X130960000Y-88511000D02*
X129284000Y-88511000D01*
X134790000Y-88391000D02*
X133040000Y-88391000D01*
X135150000Y-87471000D02*
X133040000Y-87471000D01*
X135211000Y-87110000D02*
X133040000Y-87110000D01*
X130960000Y-87310000D02*
X128818000Y-87310000D01*
X134690000Y-88551000D02*
X133040000Y-88551000D01*
X134343000Y-88991000D02*
X133040000Y-88991000D01*
X135074000Y-87751000D02*
X133040000Y-87751000D01*
X134766000Y-88431000D02*
X133040000Y-88431000D01*
X130960000Y-87671000D02*
X128902000Y-87671000D01*
X130960000Y-88311000D02*
X129166000Y-88311000D01*
X135018000Y-87911000D02*
X133040000Y-87911000D01*
X135230000Y-86790000D02*
X128770000Y-86790000D01*
X135121000Y-87591000D02*
X133040000Y-87591000D01*
X135224000Y-86950000D02*
X128776000Y-86950000D01*
X132940000Y-89871000D02*
X131060000Y-89871000D01*
X130960000Y-86990000D02*
X128778000Y-86990000D01*
X133714000Y-89511000D02*
X130286000Y-89511000D01*
X130960000Y-87230000D02*
X128805000Y-87230000D01*
X134876000Y-88231000D02*
X133040000Y-88231000D01*
X130960000Y-88551000D02*
X129310000Y-88551000D01*
X132633000Y-89951000D02*
X131367000Y-89951000D01*
X133995000Y-89311000D02*
X130005000Y-89311000D01*
X135033000Y-87871000D02*
X133040000Y-87871000D01*
X130960000Y-88991000D02*
X129657000Y-88991000D01*
X132802000Y-89911000D02*
X131198000Y-89911000D01*
X135175000Y-87350000D02*
X133040000Y-87350000D01*
X130960000Y-89031000D02*
X129695000Y-89031000D01*
X130960000Y-87350000D02*
X128825000Y-87350000D01*
X134092000Y-89231000D02*
X129908000Y-89231000D01*
X134154000Y-83564759D02*
X133524000Y-83564759D01*
X133059000Y-89831000D02*
X130941000Y-89831000D01*
X130960000Y-87390000D02*
X128833000Y-87390000D01*
X135061000Y-87791000D02*
X133040000Y-87791000D01*
X133944000Y-89351000D02*
X130056000Y-89351000D01*
X130960000Y-87831000D02*
X128953000Y-87831000D01*
X130960000Y-88951000D02*
X129620000Y-88951000D01*
X130960000Y-88831000D02*
X129516000Y-88831000D01*
X133350000Y-89711000D02*
X130650000Y-89711000D01*
X134137000Y-89191000D02*
X129863000Y-89191000D01*
X133839000Y-83249759D02*
X133839000Y-83879759D01*
X135110000Y-87631000D02*
X133040000Y-87631000D01*
X130960000Y-87951000D02*
X128998000Y-87951000D01*
X134896000Y-88191000D02*
X133040000Y-88191000D01*
X130960000Y-87511000D02*
X128859000Y-87511000D01*
X130960000Y-87190000D02*
X128799000Y-87190000D01*
X130960000Y-87110000D02*
X128789000Y-87110000D01*
X130960000Y-87791000D02*
X128939000Y-87791000D01*
X135222000Y-86990000D02*
X133040000Y-86990000D01*
X133581000Y-89591000D02*
X130419000Y-89591000D01*
X130960000Y-88591000D02*
X129336000Y-88591000D01*
X134986000Y-87991000D02*
X133040000Y-87991000D01*
X135047000Y-87831000D02*
X133040000Y-87831000D01*
X130960000Y-88031000D02*
X129030000Y-88031000D01*
X135159000Y-87430000D02*
X133040000Y-87430000D01*
X134812000Y-88351000D02*
X133040000Y-88351000D01*
X130960000Y-88391000D02*
X129210000Y-88391000D01*
X133834000Y-89431000D02*
X130166000Y-89431000D01*
X135227000Y-86910000D02*
X128773000Y-86910000D01*
X134834000Y-88311000D02*
X133040000Y-88311000D01*
X132402000Y-89991000D02*
X131598000Y-89991000D01*
X130960000Y-87150000D02*
X128794000Y-87150000D01*
X134380000Y-88951000D02*
X133040000Y-88951000D01*
X133165000Y-89791000D02*
X130835000Y-89791000D01*
X130960000Y-88791000D02*
X129484000Y-88791000D01*
X130960000Y-87270000D02*
X128811000Y-87270000D01*
X135206000Y-87150000D02*
X133040000Y-87150000D01*
X130960000Y-87070000D02*
X128785000Y-87070000D01*
X130960000Y-87030000D02*
X128782000Y-87030000D01*
X135230000Y-86750000D02*
X128770000Y-86750000D01*
X134742000Y-88471000D02*
X133040000Y-88471000D01*
X130960000Y-88271000D02*
X129144000Y-88271000D01*
X134548000Y-88751000D02*
X133040000Y-88751000D01*
X130960000Y-87711000D02*
X128914000Y-87711000D01*
X134578000Y-88711000D02*
X133040000Y-88711000D01*
X133776000Y-89471000D02*
X130224000Y-89471000D01*
X135167000Y-87390000D02*
X133040000Y-87390000D01*
X130960000Y-87591000D02*
X128879000Y-87591000D01*
X135218000Y-87030000D02*
X133040000Y-87030000D01*
X134934000Y-88111000D02*
X133040000Y-88111000D01*
X134265000Y-89071000D02*
X129735000Y-89071000D01*
X130960000Y-87430000D02*
X128841000Y-87430000D01*
X134952000Y-88071000D02*
X133040000Y-88071000D01*
X135086000Y-87711000D02*
X133040000Y-87711000D01*
X135215000Y-87070000D02*
X133040000Y-87070000D01*
X134970000Y-88031000D02*
X133040000Y-88031000D01*
X130960000Y-88151000D02*
X129084000Y-88151000D01*
X134224000Y-89111000D02*
X129776000Y-89111000D01*
X135195000Y-87230000D02*
X133040000Y-87230000D01*
X130960000Y-88711000D02*
X129422000Y-88711000D01*
X133432000Y-89671000D02*
X130568000Y-89671000D01*
X135141000Y-87511000D02*
X133040000Y-87511000D01*
X133262000Y-89751000D02*
X130738000Y-89751000D01*
X130960000Y-87631000D02*
X128890000Y-87631000D01*
X135230000Y-86830000D02*
X128770000Y-86830000D01*
X134305000Y-89031000D02*
X133040000Y-89031000D01*
X130960000Y-88871000D02*
X129550000Y-88871000D01*
X134182000Y-89151000D02*
X129818000Y-89151000D01*
X130960000Y-87991000D02*
X129014000Y-87991000D01*
X134516000Y-88791000D02*
X133040000Y-88791000D01*
X130960000Y-88231000D02*
X129124000Y-88231000D01*
X135270000Y-86750000D02*
G75*
G03*
X135270000Y-86750000I-3270000J0D01*
G01*
X152208650Y-83855938D02*
X151686146Y-83855938D01*
X152208650Y-82385938D02*
X151686146Y-82385938D01*
X99420000Y-78230000D02*
X102080000Y-78230000D01*
X99420000Y-65470000D02*
X102080000Y-65470000D01*
X99420000Y-65470000D02*
X99420000Y-78230000D01*
X99420000Y-64200000D02*
X99420000Y-62870000D01*
X102080000Y-65470000D02*
X102080000Y-78230000D01*
X99420000Y-62870000D02*
X100750000Y-62870000D01*
D13*
X153100000Y-87350000D02*
X155550000Y-90150000D01*
X146300000Y-99200000D02*
X146300000Y-98200000D01*
X155550000Y-102850000D02*
X147450000Y-102850000D01*
X146300000Y-91000000D02*
X146300000Y-92000000D01*
X147450000Y-102850000D02*
X147450000Y-90150000D01*
X147450000Y-90150000D02*
X149900000Y-87350000D01*
X149900000Y-87350000D02*
X153100000Y-87350000D01*
X155550000Y-90150000D02*
X155550000Y-102850000D01*
X145800000Y-98700000D02*
X146800000Y-98700000D01*
D12*
X116802000Y-87678621D02*
X115198000Y-87678621D01*
X117165000Y-87558621D02*
X114835000Y-87558621D01*
X118664000Y-86358621D02*
X117040000Y-86358621D01*
X114960000Y-85117621D02*
X112825000Y-85117621D01*
X114960000Y-85238621D02*
X112850000Y-85238621D01*
X118896000Y-85958621D02*
X117040000Y-85958621D01*
X117890000Y-87158621D02*
X114110000Y-87158621D01*
X119227000Y-84677621D02*
X112773000Y-84677621D01*
X118450000Y-86638621D02*
X117040000Y-86638621D01*
X117432000Y-87438621D02*
X114568000Y-87438621D01*
X118343000Y-86758621D02*
X117040000Y-86758621D01*
X118044000Y-87038621D02*
X113956000Y-87038621D01*
X114960000Y-86478621D02*
X113422000Y-86478621D01*
X114960000Y-86238621D02*
X113258000Y-86238621D01*
X117944000Y-87118621D02*
X114056000Y-87118621D01*
X114960000Y-85558621D02*
X112939000Y-85558621D01*
X114960000Y-86118621D02*
X113188000Y-86118621D01*
X118548000Y-86518621D02*
X117040000Y-86518621D01*
X114960000Y-85998621D02*
X113124000Y-85998621D01*
X114960000Y-84797621D02*
X112782000Y-84797621D01*
X118305000Y-86798621D02*
X117040000Y-86798621D01*
X114960000Y-85638621D02*
X112967000Y-85638621D01*
X118182000Y-86918621D02*
X113818000Y-86918621D01*
X118636000Y-86398621D02*
X117040000Y-86398621D01*
X117834000Y-87198621D02*
X114166000Y-87198621D01*
X114960000Y-85358621D02*
X112879000Y-85358621D01*
X119224000Y-84717621D02*
X112776000Y-84717621D01*
X114960000Y-85318621D02*
X112869000Y-85318621D01*
X119195000Y-84997621D02*
X117040000Y-84997621D01*
X119222000Y-84757621D02*
X117040000Y-84757621D01*
X119175000Y-85117621D02*
X117040000Y-85117621D01*
X114960000Y-85037621D02*
X112811000Y-85037621D01*
X119230000Y-84597621D02*
X112770000Y-84597621D01*
X118154000Y-81332380D02*
X117524000Y-81332380D01*
X119206000Y-84917621D02*
X117040000Y-84917621D01*
X114960000Y-86638621D02*
X113550000Y-86638621D01*
X118876000Y-85998621D02*
X117040000Y-85998621D01*
X116633000Y-87718621D02*
X115367000Y-87718621D01*
X119033000Y-85638621D02*
X117040000Y-85638621D01*
X114960000Y-85758621D02*
X113014000Y-85758621D01*
X116402000Y-87758621D02*
X115598000Y-87758621D01*
X119098000Y-85438621D02*
X117040000Y-85438621D01*
X117059000Y-87598621D02*
X114941000Y-87598621D01*
X119061000Y-85558621D02*
X117040000Y-85558621D01*
X119218000Y-84797621D02*
X117040000Y-84797621D01*
X118952000Y-85838621D02*
X117040000Y-85838621D01*
X114960000Y-84957621D02*
X112799000Y-84957621D01*
X116940000Y-87638621D02*
X115060000Y-87638621D01*
X119141000Y-85278621D02*
X117040000Y-85278621D01*
X119189000Y-85037621D02*
X117040000Y-85037621D01*
X117509000Y-87398621D02*
X114491000Y-87398621D01*
X114960000Y-84837621D02*
X112785000Y-84837621D01*
X114960000Y-86758621D02*
X113657000Y-86758621D01*
X119230000Y-84557621D02*
X112770000Y-84557621D01*
X118265000Y-86838621D02*
X113735000Y-86838621D01*
X118416000Y-86678621D02*
X117040000Y-86678621D01*
X118970000Y-85798621D02*
X117040000Y-85798621D01*
X118137000Y-86958621D02*
X113863000Y-86958621D01*
X114960000Y-84997621D02*
X112805000Y-84997621D01*
X114960000Y-85918621D02*
X113084000Y-85918621D01*
X114960000Y-85197621D02*
X112841000Y-85197621D01*
X118607000Y-86438621D02*
X117040000Y-86438621D01*
X114960000Y-85678621D02*
X112982000Y-85678621D01*
X114960000Y-85398621D02*
X112890000Y-85398621D01*
X118812000Y-86118621D02*
X117040000Y-86118621D01*
X114960000Y-85718621D02*
X112998000Y-85718621D01*
X119121000Y-85358621D02*
X117040000Y-85358621D01*
X119230000Y-84517621D02*
X112770000Y-84517621D01*
X114960000Y-85278621D02*
X112859000Y-85278621D01*
X114960000Y-85798621D02*
X113030000Y-85798621D01*
X118690000Y-86318621D02*
X117040000Y-86318621D01*
X114960000Y-86278621D02*
X113284000Y-86278621D01*
X119159000Y-85197621D02*
X117040000Y-85197621D01*
X118916000Y-85918621D02*
X117040000Y-85918621D01*
X117714000Y-87278621D02*
X114286000Y-87278621D01*
X118790000Y-86158621D02*
X117040000Y-86158621D01*
X118766000Y-86198621D02*
X117040000Y-86198621D01*
X119018000Y-85678621D02*
X117040000Y-85678621D01*
X114960000Y-86598621D02*
X113516000Y-86598621D01*
X118716000Y-86278621D02*
X117040000Y-86278621D01*
X119131000Y-85318621D02*
X117040000Y-85318621D01*
X114960000Y-84877621D02*
X112789000Y-84877621D01*
X114960000Y-86558621D02*
X113484000Y-86558621D01*
X118578000Y-86478621D02*
X117040000Y-86478621D01*
X118092000Y-86998621D02*
X113908000Y-86998621D01*
X114960000Y-84757621D02*
X112778000Y-84757621D01*
X118856000Y-86038621D02*
X117040000Y-86038621D01*
X114960000Y-86518621D02*
X113452000Y-86518621D01*
X114960000Y-86158621D02*
X113210000Y-86158621D01*
X117650000Y-87318621D02*
X114350000Y-87318621D01*
X118380000Y-86718621D02*
X117040000Y-86718621D01*
X114960000Y-85958621D02*
X113104000Y-85958621D01*
X117581000Y-87358621D02*
X114419000Y-87358621D01*
X118742000Y-86238621D02*
X117040000Y-86238621D01*
X118934000Y-85878621D02*
X117040000Y-85878621D01*
X118834000Y-86078621D02*
X117040000Y-86078621D01*
X118516000Y-86558621D02*
X117040000Y-86558621D01*
X119002000Y-85718621D02*
X117040000Y-85718621D01*
X114960000Y-85878621D02*
X113066000Y-85878621D01*
X119086000Y-85478621D02*
X117040000Y-85478621D01*
X119215000Y-84837621D02*
X117040000Y-84837621D01*
X114960000Y-85157621D02*
X112833000Y-85157621D01*
X118484000Y-86598621D02*
X117040000Y-86598621D01*
X117839000Y-81017380D02*
X117839000Y-81647380D01*
X114960000Y-85077621D02*
X112818000Y-85077621D01*
X114960000Y-86438621D02*
X113393000Y-86438621D01*
X114960000Y-85478621D02*
X112914000Y-85478621D01*
X114960000Y-86718621D02*
X113620000Y-86718621D01*
X114960000Y-85598621D02*
X112953000Y-85598621D01*
X118986000Y-85758621D02*
X117040000Y-85758621D01*
X119228000Y-84637621D02*
X112772000Y-84637621D01*
X119201000Y-84957621D02*
X117040000Y-84957621D01*
X117262000Y-87518621D02*
X114738000Y-87518621D01*
X114960000Y-84917621D02*
X112794000Y-84917621D01*
X117776000Y-87238621D02*
X114224000Y-87238621D01*
X119047000Y-85598621D02*
X117040000Y-85598621D01*
X114960000Y-85518621D02*
X112926000Y-85518621D01*
X119110000Y-85398621D02*
X117040000Y-85398621D01*
X117995000Y-87078621D02*
X114005000Y-87078621D01*
X114960000Y-85438621D02*
X112902000Y-85438621D01*
X114960000Y-86678621D02*
X113584000Y-86678621D01*
X114960000Y-85838621D02*
X113048000Y-85838621D01*
X114960000Y-86398621D02*
X113364000Y-86398621D01*
X114960000Y-86318621D02*
X113310000Y-86318621D01*
X114960000Y-86038621D02*
X113144000Y-86038621D01*
X119211000Y-84877621D02*
X117040000Y-84877621D01*
X114960000Y-86358621D02*
X113336000Y-86358621D01*
X118224000Y-86878621D02*
X113776000Y-86878621D01*
X114960000Y-86798621D02*
X113695000Y-86798621D01*
X119074000Y-85518621D02*
X117040000Y-85518621D01*
X119167000Y-85157621D02*
X117040000Y-85157621D01*
X114960000Y-86078621D02*
X113166000Y-86078621D01*
X119182000Y-85077621D02*
X117040000Y-85077621D01*
X117350000Y-87478621D02*
X114650000Y-87478621D01*
X114960000Y-86198621D02*
X113234000Y-86198621D01*
X119150000Y-85238621D02*
X117040000Y-85238621D01*
X119270000Y-84517621D02*
G75*
G03*
X119270000Y-84517621I-3270000J0D01*
G01*
X107708748Y-83855000D02*
X108231252Y-83855000D01*
X107708748Y-82385000D02*
X108231252Y-82385000D01*
D13*
X134430000Y-105050000D02*
X134430000Y-108950000D01*
X125570000Y-105050000D02*
X125570000Y-108950000D01*
D14*
X134510000Y-102645000D02*
G75*
G03*
X134510000Y-102645000I-100000J0D01*
G01*
D13*
X131541600Y-101457000D02*
X131541600Y-101253800D01*
X138958400Y-101457000D02*
X134564200Y-101457000D01*
X134564200Y-101457000D02*
X131541600Y-101457000D01*
X138958400Y-101228400D02*
X138958400Y-101457000D01*
X138933000Y-91043000D02*
X138933000Y-91271600D01*
X138729800Y-91043000D02*
X131541600Y-91043000D01*
X138933000Y-91043000D02*
X138729800Y-91043000D01*
X131541600Y-91043000D02*
X131541600Y-91271600D01*
X132964000Y-91678000D02*
G75*
G03*
X132964000Y-91678000I-254000J0D01*
G01*
D12*
X112820000Y-68720000D02*
X112820000Y-65780000D01*
X108280000Y-65780000D02*
X108280000Y-68720000D01*
X108280000Y-68720000D02*
X113720000Y-68720000D01*
X107060000Y-67250000D02*
X108280000Y-67250000D01*
X112940000Y-68720000D02*
X112940000Y-65780000D01*
X113720000Y-65780000D02*
X108280000Y-65780000D01*
X114940000Y-67250000D02*
X113720000Y-67250000D01*
X112700000Y-68720000D02*
X112700000Y-65780000D01*
X113720000Y-68720000D02*
X113720000Y-65780000D01*
X163570000Y-110645000D02*
X163570000Y-110630000D01*
X163570000Y-110630000D02*
X159030000Y-110630000D01*
X163570000Y-112770000D02*
X159030000Y-112770000D01*
X163570000Y-112770000D02*
X163570000Y-112755000D01*
X159030000Y-112770000D02*
X159030000Y-112755000D01*
X159030000Y-110645000D02*
X159030000Y-110630000D01*
X111345000Y-116332936D02*
X111345000Y-116787064D01*
X109875000Y-116332936D02*
X109875000Y-116787064D01*
X153495563Y-116640000D02*
X151510000Y-116640000D01*
X146040000Y-117704437D02*
X146040000Y-125160000D01*
X147104437Y-116640000D02*
X149090000Y-116640000D01*
X154560000Y-117704437D02*
X154560000Y-125160000D01*
X147104437Y-116640000D02*
X146040000Y-117704437D01*
X146040000Y-125160000D02*
X149090000Y-125160000D01*
X154560000Y-125160000D02*
X151510000Y-125160000D01*
X153495563Y-116640000D02*
X154560000Y-117704437D01*
X153010000Y-115900000D02*
X152010000Y-115900000D01*
X152510000Y-115400000D02*
X152510000Y-116400000D01*
X141935000Y-125727064D02*
X141935000Y-125272936D01*
X140465000Y-125727064D02*
X140465000Y-125272936D01*
X102570000Y-78840000D02*
X99120000Y-78840000D01*
X102570000Y-83960000D02*
X100620000Y-83960000D01*
X102570000Y-83960000D02*
X104520000Y-83960000D01*
X102570000Y-78840000D02*
X104520000Y-78840000D01*
X113720000Y-77220000D02*
X113720000Y-74280000D01*
X112940000Y-77220000D02*
X112940000Y-74280000D01*
X112820000Y-77220000D02*
X112820000Y-74280000D01*
X108280000Y-74280000D02*
X108280000Y-77220000D01*
X113720000Y-74280000D02*
X108280000Y-74280000D01*
X107060000Y-75750000D02*
X108280000Y-75750000D01*
X112700000Y-77220000D02*
X112700000Y-74280000D01*
X114940000Y-75750000D02*
X113720000Y-75750000D01*
X108280000Y-77220000D02*
X113720000Y-77220000D01*
D13*
X114500000Y-159600000D02*
X114500000Y-103250000D01*
X145500000Y-103250000D02*
X145500000Y-159600000D01*
X114500000Y-103250000D02*
X145500000Y-103250000D01*
X114500000Y-159600000D02*
X145500000Y-159600000D01*
D14*
X115000000Y-112250000D02*
G75*
G03*
X115000000Y-112250000I-100000J0D01*
G01*
D12*
X146200000Y-68720000D02*
X151640000Y-68720000D01*
X144980000Y-67250000D02*
X146200000Y-67250000D01*
X152860000Y-67250000D02*
X151640000Y-67250000D01*
X151640000Y-65780000D02*
X146200000Y-65780000D01*
X150740000Y-68720000D02*
X150740000Y-65780000D01*
X150620000Y-68720000D02*
X150620000Y-65780000D01*
X150860000Y-68720000D02*
X150860000Y-65780000D01*
X151640000Y-68720000D02*
X151640000Y-65780000D01*
X146200000Y-65780000D02*
X146200000Y-68720000D01*
X151640000Y-71030000D02*
X146200000Y-71030000D01*
X146980000Y-71030000D02*
X146980000Y-73970000D01*
X144980000Y-72500000D02*
X146200000Y-72500000D01*
X152860000Y-72500000D02*
X151640000Y-72500000D01*
X151640000Y-73970000D02*
X151640000Y-71030000D01*
X147100000Y-71030000D02*
X147100000Y-73970000D01*
X146200000Y-73970000D02*
X151640000Y-73970000D01*
X146200000Y-71030000D02*
X146200000Y-73970000D01*
X147220000Y-71030000D02*
X147220000Y-73970000D01*
X130000000Y-70050000D02*
X141900000Y-70050000D01*
X141900000Y-70050000D02*
X142000000Y-70050000D01*
X139170000Y-60700000D02*
X138510000Y-63500000D01*
X138990000Y-60640000D02*
X139170000Y-60700000D01*
X125130000Y-60650000D02*
X123520000Y-64360000D01*
X133685280Y-66400000D02*
X126300000Y-66400000D01*
X118100000Y-70050000D02*
X118000000Y-70050000D01*
X123510000Y-64360000D02*
X121010000Y-60640000D01*
X142000000Y-70050000D02*
X142000000Y-60250000D01*
X136490000Y-64360000D02*
X138990000Y-60640000D01*
X121490000Y-63500000D02*
X118000000Y-60250000D01*
X134185280Y-66400000D02*
X134185280Y-60650000D01*
X125800000Y-66400000D02*
X134185280Y-66400000D01*
X120830000Y-60700000D02*
X121490000Y-63500000D01*
X134200000Y-60650000D02*
X134870000Y-60650000D01*
X130000000Y-70050000D02*
X118100000Y-70050000D01*
X125800000Y-60650000D02*
X125130000Y-60650000D01*
X134870000Y-60650000D02*
X136480000Y-64360000D01*
X125800000Y-66400000D02*
X125800000Y-60650000D01*
X118000000Y-70050000D02*
X118000000Y-60250000D01*
X138510000Y-63500000D02*
X142000000Y-60250000D01*
X121010000Y-60640000D02*
X120830000Y-60700000D01*
X154560000Y-135995563D02*
X154560000Y-128540000D01*
X154560000Y-128540000D02*
X151510000Y-128540000D01*
X148090000Y-138300000D02*
X148090000Y-137300000D01*
X153495563Y-137060000D02*
X151510000Y-137060000D01*
X153495563Y-137060000D02*
X154560000Y-135995563D01*
X147104437Y-137060000D02*
X146040000Y-135995563D01*
X146040000Y-128540000D02*
X149090000Y-128540000D01*
X147590000Y-137800000D02*
X148590000Y-137800000D01*
X146040000Y-135995563D02*
X146040000Y-128540000D01*
X147104437Y-137060000D02*
X149090000Y-137060000D01*
X121735000Y-82272936D02*
X121735000Y-82727064D01*
X120265000Y-82272936D02*
X120265000Y-82727064D01*
X119775000Y-70765000D02*
X119775000Y-75026000D01*
X119775000Y-75026000D02*
X121451000Y-75026000D01*
X131265000Y-75026000D02*
X131265000Y-78420000D01*
X128146000Y-70785000D02*
X128146000Y-71625000D01*
X123300000Y-75026000D02*
X123991000Y-75026000D01*
X131845000Y-70785000D02*
X131845000Y-71625000D01*
X133460000Y-75026000D02*
X134151000Y-75026000D01*
X138540000Y-75026000D02*
X140215000Y-75026000D01*
X136345000Y-75026000D02*
X136345000Y-78420000D01*
X130920000Y-75026000D02*
X131611000Y-75026000D01*
X140215000Y-70765000D02*
X140215000Y-75026000D01*
X136000000Y-75026000D02*
X136691000Y-75026000D01*
X119775000Y-71625000D02*
X140215000Y-71625000D01*
X133805000Y-75026000D02*
X133805000Y-78420000D01*
X128725000Y-75026000D02*
X128725000Y-78420000D01*
X123645000Y-75026000D02*
X123645000Y-78420000D01*
X121105000Y-75026000D02*
X121105000Y-78435000D01*
X126185000Y-75026000D02*
X126185000Y-78420000D01*
X138885000Y-75026000D02*
X138885000Y-78420000D01*
X119775000Y-70765000D02*
X140215000Y-70765000D01*
X125840000Y-75026000D02*
X126531000Y-75026000D01*
X128380000Y-75026000D02*
X129071000Y-75026000D01*
X155944751Y-102664574D02*
X155944751Y-92544574D01*
X162220751Y-96114574D02*
X162278751Y-96173574D01*
X165064751Y-102664574D02*
X165064751Y-92544574D01*
X159935751Y-93829574D02*
X160028751Y-93923574D01*
X159729751Y-94034574D02*
X159788751Y-94093574D01*
X165304751Y-102904574D02*
X165304751Y-101404574D01*
X163504751Y-102664574D02*
X163504751Y-92544574D01*
X155944751Y-92544574D02*
X165064751Y-92544574D01*
X163564751Y-102904574D02*
X165304751Y-102904574D01*
X161980751Y-96284574D02*
X162073751Y-96378574D01*
X155944751Y-102664574D02*
X165064751Y-102664574D01*
X161793751Y-98620574D02*
G75*
G03*
X160215662Y-98620621I-789000J-1483995D01*
G01*
X160215751Y-101588574D02*
G75*
G03*
X161793840Y-101588527I789000J1483995D01*
G01*
X159520751Y-99315574D02*
G75*
G03*
X159520798Y-100893663I1483995J-789000D01*
G01*
X162684751Y-100104574D02*
G75*
G03*
X162488103Y-99315862I-1679991J2D01*
G01*
X162488751Y-100893574D02*
G75*
G03*
X162685201Y-100075191I-1483995J788998D01*
G01*
X162684751Y-95104574D02*
G75*
G03*
X162684751Y-95104574I-1680000J0D01*
G01*
X158904751Y-95104574D02*
G75*
G03*
X158904751Y-95104574I-900000J0D01*
G01*
X158904751Y-100104574D02*
G75*
G03*
X158904751Y-100104574I-900000J0D01*
G01*
D13*
X128124273Y-91419079D02*
X128124273Y-87019079D01*
X121224273Y-91419079D02*
X121224273Y-87019079D01*
D14*
X121849273Y-93409079D02*
G75*
G03*
X121849273Y-93409079I-100000J0D01*
G01*
D12*
X157350000Y-78840000D02*
X159300000Y-78840000D01*
X157350000Y-83960000D02*
X155400000Y-83960000D01*
X157350000Y-78840000D02*
X155400000Y-78840000D01*
X157350000Y-83960000D02*
X160800000Y-83960000D01*
X108280000Y-71030000D02*
X108280000Y-73970000D01*
X114940000Y-72500000D02*
X113720000Y-72500000D01*
X108280000Y-73970000D02*
X113720000Y-73970000D01*
X107060000Y-72500000D02*
X108280000Y-72500000D01*
X109060000Y-71030000D02*
X109060000Y-73970000D01*
X109180000Y-71030000D02*
X109180000Y-73970000D01*
X113720000Y-73970000D02*
X113720000Y-71030000D01*
X113720000Y-71030000D02*
X108280000Y-71030000D01*
X109300000Y-71030000D02*
X109300000Y-73970000D01*
X162528621Y-107740000D02*
X162528621Y-109634000D01*
X162488621Y-107740000D02*
X162488621Y-109652000D01*
X163768621Y-104756000D02*
X163768621Y-108644000D01*
X161968621Y-107740000D02*
X161968621Y-109831000D01*
X163968621Y-105050000D02*
X163968621Y-108350000D01*
X161888621Y-103550000D02*
X161888621Y-105660000D01*
X161207621Y-103470000D02*
X161207621Y-109930000D01*
X162288621Y-103667000D02*
X162288621Y-105660000D01*
X162688621Y-107740000D02*
X162688621Y-109556000D01*
X161327621Y-103473000D02*
X161327621Y-109927000D01*
X161807621Y-103533000D02*
X161807621Y-105660000D01*
X162048621Y-107740000D02*
X162048621Y-109810000D01*
X163328621Y-104284000D02*
X163328621Y-105660000D01*
X163688621Y-104656000D02*
X163688621Y-108744000D01*
X161928621Y-107740000D02*
X161928621Y-109841000D01*
X162328621Y-103682000D02*
X162328621Y-105660000D01*
X163008621Y-104036000D02*
X163008621Y-105660000D01*
X163368621Y-107740000D02*
X163368621Y-109080000D01*
X164168621Y-105438000D02*
X164168621Y-107962000D01*
X163848621Y-104866000D02*
X163848621Y-108534000D01*
X162408621Y-107740000D02*
X162408621Y-109686000D01*
X162568621Y-107740000D02*
X162568621Y-109616000D01*
X162648621Y-107740000D02*
X162648621Y-109576000D01*
X163448621Y-104395000D02*
X163448621Y-105660000D01*
X161687621Y-107740000D02*
X161687621Y-109889000D01*
X162928621Y-107740000D02*
X162928621Y-109416000D01*
X161407621Y-103478000D02*
X161407621Y-105660000D01*
X163088621Y-107740000D02*
X163088621Y-109307000D01*
X162088621Y-103602000D02*
X162088621Y-105660000D01*
X162408621Y-103714000D02*
X162408621Y-105660000D01*
X157667380Y-104861000D02*
X158297380Y-104861000D01*
X162168621Y-107740000D02*
X162168621Y-109774000D01*
X161367621Y-103476000D02*
X161367621Y-109924000D01*
X161647621Y-103505000D02*
X161647621Y-105660000D01*
X164128621Y-105350000D02*
X164128621Y-108050000D01*
X162288621Y-107740000D02*
X162288621Y-109733000D01*
X161287621Y-103472000D02*
X161287621Y-109928000D01*
X164088621Y-105268000D02*
X164088621Y-108132000D01*
X162208621Y-107740000D02*
X162208621Y-109761000D01*
X162008621Y-107740000D02*
X162008621Y-109821000D01*
X161447621Y-107740000D02*
X161447621Y-109918000D01*
X162248621Y-103653000D02*
X162248621Y-105660000D01*
X162728621Y-107740000D02*
X162728621Y-109534000D01*
X162168621Y-103626000D02*
X162168621Y-105660000D01*
X163368621Y-104320000D02*
X163368621Y-105660000D01*
X161247621Y-103470000D02*
X161247621Y-109930000D01*
X161888621Y-107740000D02*
X161888621Y-109850000D01*
X162848621Y-103934000D02*
X162848621Y-105660000D01*
X164408621Y-106298000D02*
X164408621Y-107102000D01*
X161647621Y-107740000D02*
X161647621Y-109895000D01*
X164208621Y-105535000D02*
X164208621Y-107865000D01*
X163448621Y-107740000D02*
X163448621Y-109005000D01*
X163048621Y-104064000D02*
X163048621Y-105660000D01*
X163088621Y-104093000D02*
X163088621Y-105660000D01*
X162808621Y-107740000D02*
X162808621Y-109490000D01*
X162608621Y-107740000D02*
X162608621Y-109596000D01*
X162968621Y-107740000D02*
X162968621Y-109390000D01*
X162368621Y-103698000D02*
X162368621Y-105660000D01*
X161687621Y-103511000D02*
X161687621Y-105660000D01*
X162888621Y-107740000D02*
X162888621Y-109442000D01*
X163648621Y-104608000D02*
X163648621Y-108792000D01*
X163288621Y-104250000D02*
X163288621Y-105660000D01*
X162208621Y-103639000D02*
X162208621Y-105660000D01*
X163128621Y-104122000D02*
X163128621Y-105660000D01*
X163928621Y-104986000D02*
X163928621Y-108414000D01*
X162368621Y-107740000D02*
X162368621Y-109702000D01*
X163168621Y-104152000D02*
X163168621Y-105660000D01*
X161567621Y-107740000D02*
X161567621Y-109906000D01*
X162008621Y-103579000D02*
X162008621Y-105660000D01*
X161727621Y-103518000D02*
X161727621Y-105660000D01*
X162048621Y-103590000D02*
X162048621Y-105660000D01*
X163488621Y-104435000D02*
X163488621Y-108965000D01*
X163168621Y-107740000D02*
X163168621Y-109248000D01*
X162448621Y-107740000D02*
X162448621Y-109670000D01*
X162528621Y-103766000D02*
X162528621Y-105660000D01*
X162328621Y-107740000D02*
X162328621Y-109718000D01*
X163608621Y-104563000D02*
X163608621Y-108837000D01*
X163248621Y-107740000D02*
X163248621Y-109184000D01*
X161487621Y-103485000D02*
X161487621Y-105660000D01*
X163008621Y-107740000D02*
X163008621Y-109364000D01*
X161968621Y-103569000D02*
X161968621Y-105660000D01*
X161767621Y-107740000D02*
X161767621Y-109875000D01*
X162888621Y-103958000D02*
X162888621Y-105660000D01*
X161527621Y-103489000D02*
X161527621Y-105660000D01*
X162448621Y-103730000D02*
X162448621Y-105660000D01*
X161847621Y-107740000D02*
X161847621Y-109859000D01*
X162768621Y-107740000D02*
X162768621Y-109512000D01*
X164048621Y-105191000D02*
X164048621Y-108209000D01*
X162568621Y-103784000D02*
X162568621Y-105660000D01*
X162248621Y-107740000D02*
X162248621Y-109747000D01*
X161767621Y-103525000D02*
X161767621Y-105660000D01*
X164328621Y-105898000D02*
X164328621Y-107502000D01*
X163568621Y-104518000D02*
X163568621Y-108882000D01*
X163048621Y-107740000D02*
X163048621Y-109336000D01*
X163248621Y-104216000D02*
X163248621Y-105660000D01*
X157982380Y-104546000D02*
X157982380Y-105176000D01*
X161527621Y-107740000D02*
X161527621Y-109911000D01*
X163408621Y-107740000D02*
X163408621Y-109043000D01*
X161807621Y-107740000D02*
X161807621Y-109867000D01*
X161487621Y-107740000D02*
X161487621Y-109915000D01*
X164288621Y-105760000D02*
X164288621Y-107640000D01*
X163728621Y-104705000D02*
X163728621Y-108695000D01*
X162088621Y-107740000D02*
X162088621Y-109798000D01*
X164368621Y-106067000D02*
X164368621Y-107333000D01*
X163528621Y-104476000D02*
X163528621Y-108924000D01*
X162128621Y-107740000D02*
X162128621Y-109786000D01*
X162648621Y-103824000D02*
X162648621Y-105660000D01*
X163408621Y-104357000D02*
X163408621Y-105660000D01*
X161847621Y-103541000D02*
X161847621Y-105660000D01*
X162968621Y-104010000D02*
X162968621Y-105660000D01*
X162128621Y-103614000D02*
X162128621Y-105660000D01*
X161607621Y-107740000D02*
X161607621Y-109901000D01*
X161407621Y-107740000D02*
X161407621Y-109922000D01*
X161727621Y-107740000D02*
X161727621Y-109882000D01*
X161607621Y-103499000D02*
X161607621Y-105660000D01*
X162608621Y-103804000D02*
X162608621Y-105660000D01*
X162688621Y-103844000D02*
X162688621Y-105660000D01*
X161928621Y-103559000D02*
X161928621Y-105660000D01*
X163288621Y-107740000D02*
X163288621Y-109150000D01*
X163128621Y-107740000D02*
X163128621Y-109278000D01*
X161167621Y-103470000D02*
X161167621Y-109930000D01*
X163328621Y-107740000D02*
X163328621Y-109116000D01*
X161567621Y-103494000D02*
X161567621Y-105660000D01*
X162768621Y-103888000D02*
X162768621Y-105660000D01*
X162848621Y-107740000D02*
X162848621Y-109466000D01*
X162808621Y-103910000D02*
X162808621Y-105660000D01*
X164008621Y-105119000D02*
X164008621Y-108281000D01*
X162928621Y-103984000D02*
X162928621Y-105660000D01*
X162488621Y-103748000D02*
X162488621Y-105660000D01*
X161447621Y-103482000D02*
X161447621Y-105660000D01*
X162728621Y-103866000D02*
X162728621Y-105660000D01*
X163208621Y-104184000D02*
X163208621Y-105660000D01*
X163888621Y-104924000D02*
X163888621Y-108476000D01*
X164248621Y-105641000D02*
X164248621Y-107759000D01*
X163808621Y-104810000D02*
X163808621Y-108590000D01*
X163208621Y-107740000D02*
X163208621Y-109216000D01*
X164437621Y-106700000D02*
G75*
G03*
X164437621Y-106700000I-3270000J0D01*
G01*
X113720000Y-62530000D02*
X108280000Y-62530000D01*
X109300000Y-62530000D02*
X109300000Y-65470000D01*
X109060000Y-62530000D02*
X109060000Y-65470000D01*
X114940000Y-64000000D02*
X113720000Y-64000000D01*
X113720000Y-65470000D02*
X113720000Y-62530000D01*
X108280000Y-65470000D02*
X113720000Y-65470000D01*
X109180000Y-62530000D02*
X109180000Y-65470000D01*
X107060000Y-64000000D02*
X108280000Y-64000000D01*
X108280000Y-62530000D02*
X108280000Y-65470000D01*
%LPC*%
D15*
X164500001Y-157500000D03*
D16*
X113300000Y-79800000D03*
X118300000Y-79800000D03*
D17*
X139300000Y-126412500D03*
X139300000Y-124587500D03*
D18*
X128050000Y-123870000D03*
X128700000Y-123870000D03*
X129350000Y-123870000D03*
X130000000Y-123870000D03*
X130650000Y-123870000D03*
X131300000Y-123870000D03*
X131950000Y-123870000D03*
X131950000Y-118130000D03*
X131300000Y-118130000D03*
X130650000Y-118130000D03*
X130000000Y-118130000D03*
X129350000Y-118130000D03*
X128700000Y-118130000D03*
X128050000Y-118130000D03*
D17*
X110610000Y-113722500D03*
X110610000Y-111897500D03*
D19*
X164350000Y-144100000D03*
X153250000Y-144100000D03*
D20*
X156862500Y-134900000D03*
X161537500Y-134900000D03*
D21*
X159250000Y-64200000D03*
D22*
X159250000Y-66740000D03*
X159250000Y-69280000D03*
X159250000Y-71820000D03*
X159250000Y-74360000D03*
X159250000Y-76900000D03*
D23*
X143840000Y-64000000D03*
D24*
X154000000Y-64000000D03*
D16*
X131500000Y-82000000D03*
X136500000Y-82000000D03*
D25*
X157100000Y-129650000D03*
X158800000Y-129650000D03*
X160500000Y-129650000D03*
D26*
X160500000Y-120500000D03*
D25*
X162200000Y-129650000D03*
X163900000Y-129650000D03*
D27*
X107020000Y-79680000D03*
X108920000Y-79680000D03*
D28*
X139000000Y-81587500D03*
X139000000Y-83412500D03*
D16*
X149600000Y-112700000D03*
X152000000Y-112700000D03*
X152000000Y-107300000D03*
X154400000Y-107300000D03*
X154400000Y-112700000D03*
D29*
X149600000Y-107300000D03*
D30*
X152898005Y-79680880D03*
X150998005Y-79680880D03*
D23*
X154000000Y-75750000D03*
D24*
X143840000Y-75750000D03*
D29*
X132000000Y-85500000D03*
D16*
X132000000Y-88000000D03*
D30*
X152897398Y-83120938D03*
X150997398Y-83120938D03*
D15*
X95500001Y-157499999D03*
X95500000Y-62500000D03*
D21*
X100750000Y-64200000D03*
D22*
X100750000Y-66740000D03*
X100750000Y-69280000D03*
X100750000Y-71820000D03*
X100750000Y-74360000D03*
X100750000Y-76900000D03*
D31*
X151500000Y-91500000D03*
D32*
X151500000Y-98700000D03*
D29*
X116000000Y-83267621D03*
D16*
X116000000Y-85767621D03*
D27*
X107020000Y-83120000D03*
X108920000Y-83120000D03*
D33*
X133810000Y-104545000D03*
X132540000Y-104545000D03*
X131270000Y-104545000D03*
X130000000Y-104545000D03*
X128730000Y-104545000D03*
X127460000Y-104545000D03*
X126190000Y-104545000D03*
X126190000Y-109455000D03*
X127460000Y-109455000D03*
X128730000Y-109455000D03*
X130000000Y-109455000D03*
X131270000Y-109455000D03*
X132540000Y-109455000D03*
X133810000Y-109455000D03*
D34*
X130170000Y-91805000D03*
X130170000Y-93075000D03*
X130170000Y-94345000D03*
X130170000Y-95615000D03*
X130170000Y-96885000D03*
X130170000Y-98155000D03*
X130170000Y-99425000D03*
X130170000Y-100695000D03*
X140330000Y-100695000D03*
X140330000Y-99425000D03*
X140330000Y-98155000D03*
X140330000Y-96885000D03*
X140330000Y-95615000D03*
X140330000Y-94345000D03*
X140330000Y-93075000D03*
X140330000Y-91805000D03*
D23*
X116080000Y-67250000D03*
D24*
X105920000Y-67250000D03*
D16*
X163800000Y-111700000D03*
X158800000Y-111700000D03*
D28*
X110610000Y-115647500D03*
X110610000Y-117472500D03*
D35*
X150300000Y-117425000D03*
X150300000Y-124375000D03*
D17*
X141200000Y-126412500D03*
X141200000Y-124587500D03*
D36*
X100095000Y-79495000D03*
X100095000Y-80765000D03*
X100095000Y-82035000D03*
X100095000Y-83305000D03*
X105045000Y-83305000D03*
X105045000Y-82035000D03*
X105045000Y-80765000D03*
X105045000Y-79495000D03*
D23*
X116080000Y-75750000D03*
D24*
X105920000Y-75750000D03*
D37*
X115850000Y-113720000D03*
D38*
X115850000Y-116260000D03*
X115850000Y-118800000D03*
X115850000Y-121340000D03*
X115850000Y-123880000D03*
X115850000Y-126420000D03*
X115850000Y-128960000D03*
X115850000Y-131500000D03*
X115850000Y-134040000D03*
X115850000Y-136580000D03*
X115850000Y-139120000D03*
X115850000Y-141660000D03*
X115850000Y-144200000D03*
X115850000Y-146740000D03*
X115850000Y-149280000D03*
X144150000Y-149280000D03*
X144150000Y-146740000D03*
X144150000Y-144200000D03*
X144150000Y-141660000D03*
X144150000Y-139120000D03*
X144150000Y-136580000D03*
X144150000Y-134040000D03*
X144150000Y-131500000D03*
X144150000Y-128960000D03*
X144150000Y-126420000D03*
X144150000Y-123880000D03*
X144150000Y-121340000D03*
X144150000Y-118800000D03*
X144150000Y-116260000D03*
X144150000Y-113720000D03*
D23*
X154000000Y-67250000D03*
D24*
X143840000Y-67250000D03*
D23*
X143840000Y-72500000D03*
D24*
X154000000Y-72500000D03*
D39*
X139000000Y-67250000D03*
X121000000Y-67250000D03*
D40*
X150300000Y-136275000D03*
X150300000Y-129325000D03*
D28*
X121000000Y-81587500D03*
X121000000Y-83412500D03*
D23*
X121105000Y-79485000D03*
D24*
X122375000Y-74405000D03*
X123645000Y-79485000D03*
X124915000Y-74405000D03*
X126185000Y-79485000D03*
X127455000Y-74405000D03*
X128725000Y-79485000D03*
X129995000Y-74405000D03*
X131265000Y-79485000D03*
X132535000Y-74405000D03*
X133805000Y-79485000D03*
X135075000Y-74405000D03*
X136345000Y-79485000D03*
X137615000Y-74405000D03*
X138885000Y-79485000D03*
D41*
X161004751Y-100104574D03*
D42*
X161004751Y-95104574D03*
D18*
X121749273Y-92089079D03*
X122399273Y-92089079D03*
X123049273Y-92089079D03*
X123699273Y-92089079D03*
X124349273Y-92089079D03*
X124999273Y-92089079D03*
X125649273Y-92089079D03*
X126299273Y-92089079D03*
X126949273Y-92089079D03*
X127599273Y-92089079D03*
X127599273Y-86349079D03*
X126949273Y-86349079D03*
X126299273Y-86349079D03*
X125649273Y-86349079D03*
X124999273Y-86349079D03*
X124349273Y-86349079D03*
X123699273Y-86349079D03*
X123049273Y-86349079D03*
X122399273Y-86349079D03*
X121749273Y-86349079D03*
D43*
X159825000Y-83305000D03*
X159825000Y-82035000D03*
X159825000Y-80765000D03*
X159825000Y-79495000D03*
X154875000Y-79495000D03*
X154875000Y-80765000D03*
X154875000Y-82035000D03*
X154875000Y-83305000D03*
D23*
X105920000Y-72500000D03*
D24*
X116080000Y-72500000D03*
D15*
X164500001Y-62500000D03*
D29*
X159917621Y-106700000D03*
D16*
X162417621Y-106700000D03*
D23*
X105920000Y-64000000D03*
D24*
X116080000Y-64000000D03*
M02*
